<svg width="32" height="36" viewBox="0 0 32 36" fill="none" xmlns="http://www.w3.org/2000/svg">
<path d="M11.1173 16.9983C10.7587 16.5792 10.1998 16.603 9.95604 17.1362L4.07427 30.0029C3.96522 30.2413 3.97684 30.5245 4.10496 30.7512C4.23308 30.978 4.45943 31.116 4.70315 31.116H12.8944C13.1625 31.1228 13.4091 30.9561 13.5234 30.6907C15.2896 26.6965 14.2195 20.6235 11.1173 16.9983Z" fill="url(#paint0_linear_85_253)"/>
<path d="M15.433 5.29585C12.1433 10.9967 12.3603 17.3106 14.5272 22.0508L18.4769 30.6907C18.596 30.9513 18.8395 31.1159 19.1058 31.1159H27.2969C27.5406 31.1159 27.7669 30.9779 27.8951 30.7511C28.0232 30.5243 28.0348 30.2411 27.9258 30.0027C27.9258 30.0027 16.9063 5.89416 16.6291 5.29096C16.3812 4.75096 15.7517 4.74362 15.433 5.29585Z" fill="#2681FF"/>
<defs>
<linearGradient id="paint0_linear_85_253" x1="10.1071" y1="14.6724" x2="1.0661" y2="23.5517" gradientUnits="userSpaceOnUse">
<stop stop-color="#0052CC"/>
<stop offset="0.923" stop-color="#2684FF"/>
</linearGradient>
</defs>
</svg>
