<svg width="24" height="36" viewBox="0 0 24 36" fill="none" xmlns="http://www.w3.org/2000/svg">
<g clip-path="url(#clip0_85_257)">
<path d="M6.00124 35.5C9.31258 35.5 12 32.8867 12 29.6667V23.8333H6.00124C2.6899 23.8333 0.00244141 26.4467 0.00244141 29.6667C0.00244141 32.8867 2.6899 35.5 6.00124 35.5Z" fill="#0ACF83"/>
<path d="M0.00244141 18C0.00244141 14.78 2.6899 12.1667 6.00124 12.1667H12V23.8333H6.00124C2.6899 23.8333 0.00244141 21.22 0.00244141 18Z" fill="#A259FF"/>
<path d="M0.00244141 6.33333C0.00244141 3.11333 2.6899 0.5 6.00124 0.5H12V12.1667H6.00124C2.6899 12.1667 0.00244141 9.55333 0.00244141 6.33333Z" fill="#F24E1E"/>
<path d="M12 0.5H17.9988C21.3101 0.5 23.9976 3.11333 23.9976 6.33333C23.9976 9.55333 21.3101 12.1667 17.9988 12.1667H12V0.5Z" fill="#FF7262"/>
<path d="M23.9976 18C23.9976 21.22 21.3101 23.8333 17.9988 23.8333C14.6875 23.8333 12 21.22 12 18C12 14.78 14.6875 12.1667 17.9988 12.1667C21.3101 12.1667 23.9976 14.78 23.9976 18Z" fill="#1ABCFE"/>
</g>
<defs>
<clipPath id="clip0_85_257">
<rect width="24" height="35" fill="white" transform="translate(0 0.5)"/>
</clipPath>
</defs>
</svg>
