<svg width="32" height="36" viewBox="0 0 32 36" fill="none" xmlns="http://www.w3.org/2000/svg">
<path d="M31.397 16.4414L17.4289 1.15991C17.0422 0.737355 16.518 0.5 15.9714 0.5C15.4248 0.5 14.9006 0.737355 14.5139 1.15991L11.6095 4.33418L15.2896 8.35925C17.2225 7.64517 19.0525 9.66942 18.3889 11.7718L21.9361 15.6516C24.3812 14.7297 26.3062 18.0735 24.4698 20.0805C22.5776 22.1501 19.4547 19.8563 20.4697 17.1633L17.1589 13.5468V23.0665C18.9661 24.0462 18.7489 26.3361 17.8075 27.3635C17.3475 27.8663 16.7238 28.1487 16.0735 28.1487C15.4232 28.1487 14.7996 27.8663 14.3396 27.3635C13.0846 25.9885 13.5489 23.6986 15.1432 22.9884V13.3789C13.6574 12.714 13.386 10.9773 13.8117 9.86318L10.1838 5.89045L0.603639 16.3703C0.217131 16.7931 0 17.3666 0 17.9645C0 18.5624 0.217131 19.1358 0.603639 19.5587L14.576 34.8402C14.9626 35.2627 15.4867 35.5 16.0332 35.5C16.5797 35.5 17.1038 35.2627 17.4904 34.8402L31.397 19.6297C31.7835 19.2069 32.0007 18.6335 32.0007 18.0356C32.0007 17.4377 31.7835 16.8642 31.397 16.4414V16.4414Z" fill="#EE513B"/>
</svg>
