<svg width="133" height="133" viewBox="0 0 133 133" fill="none" xmlns="http://www.w3.org/2000/svg">
<path d="M94.41 6.44C93.78 6.14 93.14 5.85001 92.5 5.57001C92.09 5.39001 91.67 5.2 91.25 5.03C90.83 4.86 90.41 4.7 89.99 4.53C89.34 4.27 88.68 4.02001 88.02 3.79001C87.83 3.72001 87.64 3.66001 87.45 3.60001C80.72 1.28001 73.51 0 66 0C58.49 0 51.29 1.28 44.57 3.59C44.37 3.66 44.17 3.72001 43.97 3.79001C43.32 4.02001 42.67 4.27002 42.03 4.52002C41.6 4.69002 41.17 4.85 40.74 5.03C40.33 5.2 39.93 5.38 39.52 5.56C38.87 5.84 38.22 6.13 37.58 6.44C37.41 6.52 37.24 6.61 37.07 6.69C30.66 9.81 24.65 14.01 19.34 19.33C14.02 24.65 9.82001 30.66 6.70001 37.07C6.62001 37.24 6.53001 37.41 6.45001 37.58C6.14001 38.22 5.85001 38.88 5.57001 39.53C5.39001 39.93 5.21004 40.34 5.04004 40.74C4.86004 41.17 4.70003 41.6 4.53003 42.03C4.28003 42.67 4.02999 43.31 3.79999 43.97C3.72999 44.17 3.66003 44.37 3.59003 44.58C1.27003 51.31 0 58.51 0 66.01C0 73.51 1.28004 80.73 3.60004 87.46C3.67004 87.65 3.72999 87.85 3.79999 88.04C4.02999 88.7 4.29004 89.35 4.54004 90.01C4.70004 90.43 4.87004 90.85 5.04004 91.27C5.21004 91.69 5.40002 92.1 5.58002 92.52C5.86002 93.16 6.15001 93.8 6.45001 94.44C6.54001 94.62 6.63003 94.8 6.72003 94.98C9.84003 101.38 14.03 107.38 19.34 112.69C30.19 123.54 44.14 130.14 59.2 131.67C59.23 131.67 59.26 131.67 59.29 131.68C60.25 131.78 61.22 131.85 62.19 131.9C62.35 131.9 62.5 131.93 62.66 131.93C63.78 131.99 64.9 132.02 66.02 132.02C67.14 132.02 68.27 131.99 69.38 131.93C69.54 131.93 69.69 131.9 69.85 131.9C70.82 131.84 71.79 131.78 72.75 131.68C72.78 131.68 72.81 131.68 72.83 131.67C87.89 130.14 101.84 123.53 112.69 112.69C118 107.38 122.19 101.38 125.31 94.98C125.4 94.8 125.49 94.61 125.58 94.43C125.88 93.8 126.16 93.17 126.44 92.53C126.62 92.11 126.81 91.69 126.99 91.27C127.16 90.86 127.32 90.44 127.48 90.02C127.74 89.36 127.99 88.7 128.23 88.03C128.29 87.85 128.35 87.66 128.42 87.48C130.74 80.74 132.02 73.53 132.02 66.01C132.02 58.49 130.74 51.29 128.42 44.56C128.35 44.37 128.29 44.17 128.22 43.98C127.99 43.32 127.74 42.67 127.48 42.02C127.31 41.59 127.15 41.17 126.98 40.74C126.81 40.33 126.63 39.92 126.45 39.51C126.17 38.86 125.88 38.22 125.57 37.58C125.49 37.41 125.4 37.23 125.31 37.06C122.19 30.65 117.99 24.64 112.68 19.33C107.37 14.02 101.37 9.82001 94.96 6.70001C94.78 6.61001 94.6 6.52002 94.42 6.43002L94.41 6.44ZM104.84 27.16C105.42 28.17 105.97 29.21 106.5 30.27C105.77 31.28 104.95 32.38 104.07 33.53C103.19 32.56 102.28 31.6 101.34 30.66C100.4 29.72 99.44 28.82 98.47 27.93C99.63 27.04 100.72 26.23 101.73 25.5C102.79 26.03 103.82 26.58 104.84 27.16ZM102.96 24.63C103.05 24.57 103.13 24.51 103.21 24.45C103.31 24.61 103.42 24.77 103.52 24.93C103.33 24.83 103.15 24.72 102.96 24.63ZM107.17 31.65C108.23 33.89 109.2 36.22 110.05 38.63C109.89 38.98 109.72 39.33 109.55 39.69C109.36 39.6 109.18 39.52 108.99 39.43C107.73 37.77 106.39 36.15 104.98 34.55C105.78 33.51 106.51 32.55 107.17 31.65ZM107.07 28.47C107.23 28.57 107.39 28.68 107.55 28.78C107.49 28.86 107.43 28.95 107.37 29.03C107.27 28.84 107.17 28.65 107.07 28.47ZM123.19 50.31C123.19 52.03 123.09 53.77 122.92 55.54C121.29 54.68 119.46 53.86 117.44 53.08C117.09 52.37 116.74 51.66 116.37 50.96C116.92 49.21 117.38 47.49 117.75 45.8C119.78 47.22 121.6 48.72 123.19 50.3V50.31ZM118.01 44.46C118.43 42.23 118.69 40.06 118.78 37.98C120.17 39.46 121.47 41 122.64 42.6C122.93 44.53 123.11 46.51 123.17 48.53C121.63 47.11 119.9 45.75 118.02 44.46H118.01ZM117.75 86.2C117.39 84.53 116.93 82.82 116.39 81.09C116.77 80.37 117.13 79.64 117.49 78.9C119.48 78.14 121.29 77.32 122.91 76.47C123.08 78.23 123.17 79.98 123.18 81.71C121.59 83.28 119.78 84.78 117.76 86.19L117.75 86.2ZM123.14 83.51C123.08 85.53 122.91 87.51 122.61 89.46C121.45 91.04 120.16 92.57 118.78 94.04C118.69 91.96 118.44 89.79 118.01 87.56C119.89 86.28 121.6 84.93 123.14 83.52V83.51ZM107.18 100.36C106.52 99.46 105.8 98.5 105 97.46C106.41 95.87 107.75 94.24 109.03 92.57C109.2 92.49 109.36 92.42 109.52 92.34C109.7 92.72 109.87 93.08 110.04 93.45C109.19 95.84 108.24 98.14 107.19 100.36H107.18ZM107.56 103.23C107.4 103.33 107.24 103.44 107.08 103.54C107.18 103.35 107.29 103.17 107.38 102.98C107.44 103.06 107.5 103.15 107.56 103.23ZM101.75 106.52C100.74 105.79 99.65 104.98 98.49 104.09C99.46 103.21 100.41 102.3 101.35 101.36C102.29 100.42 103.19 99.46 104.08 98.49C104.97 99.65 105.78 100.74 106.51 101.75C105.98 102.81 105.43 103.85 104.85 104.86C103.84 105.44 102.8 105.99 101.74 106.52H101.75ZM103.54 107.09C103.44 107.25 103.33 107.41 103.23 107.57C103.15 107.51 103.06 107.45 102.98 107.39C103.17 107.29 103.35 107.19 103.54 107.09ZM66.01 120.96C64.89 120.65 63.76 120.31 62.64 119.93C62.44 118.7 62.24 117.35 62.05 115.9C63.36 115.96 64.68 116 66.01 116C67.34 116 68.66 115.96 69.97 115.9C69.78 117.34 69.58 118.69 69.38 119.93C68.26 120.3 67.14 120.65 66.01 120.96ZM69.13 121.4C69.11 121.51 69.09 121.61 69.07 121.71C68.88 121.67 68.69 121.63 68.49 121.59C68.7 121.52 68.91 121.47 69.12 121.4H69.13ZM63.52 121.59C63.33 121.64 63.14 121.67 62.94 121.71C62.92 121.61 62.9 121.5 62.88 121.4C63.09 121.47 63.3 121.53 63.51 121.59H63.52ZM66.01 114.66C64.62 114.66 63.25 114.62 61.88 114.55C61.78 113.76 61.69 112.95 61.59 112.1C63.06 111.38 64.53 110.63 66.01 109.8C67.49 110.63 68.96 111.38 70.43 112.1C70.34 112.94 70.24 113.76 70.14 114.55C68.77 114.62 67.4 114.66 66.01 114.66ZM27.16 104.86C26.58 103.85 26.03 102.81 25.5 101.75C26.23 100.74 27.05 99.64 27.93 98.49C28.82 99.46 29.72 100.42 30.66 101.36C31.6 102.3 32.56 103.22 33.53 104.1C32.35 105.01 31.26 105.81 30.28 106.52C29.22 105.99 28.17 105.43 27.16 104.86ZM29.05 107.4C28.97 107.46 28.88 107.52 28.79 107.58C28.68 107.41 28.57 107.26 28.47 107.09C28.66 107.19 28.85 107.3 29.05 107.4ZM24.83 100.37C23.78 98.15 22.82 95.85 21.98 93.46C22.15 93.09 22.32 92.72 22.5 92.35C22.66 92.43 22.83 92.5 23 92.58C24.27 94.24 25.61 95.87 27.02 97.46C26.25 98.46 25.52 99.43 24.84 100.37H24.83ZM24.93 103.55C24.77 103.45 24.61 103.34 24.45 103.24C24.51 103.16 24.57 103.07 24.63 102.99C24.73 103.18 24.83 103.36 24.93 103.55ZM8.83002 81.73C8.83002 80 8.92004 78.25 9.10004 76.49C10.72 77.34 12.53 78.15 14.52 78.92C14.88 79.65 15.24 80.38 15.62 81.11C15.08 82.84 14.62 84.55 14.26 86.22C12.23 84.81 10.43 83.31 8.84003 81.74L8.83002 81.73ZM13.99 87.56C13.57 89.79 13.31 91.96 13.22 94.04C11.84 92.57 10.55 91.04 9.39001 89.46C9.09001 87.52 8.91999 85.53 8.85999 83.51C10.4 84.92 12.11 86.27 13.99 87.55V87.56ZM14.25 45.82C14.62 47.51 15.08 49.23 15.63 50.98C15.26 51.68 14.91 52.39 14.56 53.1C12.54 53.87 10.71 54.69 9.08002 55.56C8.90002 53.79 8.82 52.04 8.81 50.33C10.4 48.75 12.22 47.25 14.25 45.83V45.82ZM8.83002 48.54C8.89002 46.51 9.06999 44.54 9.35999 42.61C10.53 41.01 11.82 39.47 13.22 37.99C13.31 40.07 13.56 42.24 13.99 44.47C12.1 45.76 10.38 47.12 8.84003 48.54H8.83002ZM24.82 31.66C25.5 32.6 26.23 33.57 27 34.57C25.59 36.16 24.26 37.79 23 39.44C22.81 39.53 22.63 39.61 22.44 39.7C22.27 39.34 22.1 38.99 21.94 38.64C22.79 36.23 23.76 33.9 24.82 31.66ZM24.44 28.8C24.6 28.7 24.76 28.59 24.92 28.49C24.82 28.68 24.71 28.86 24.62 29.05C24.56 28.97 24.5 28.88 24.44 28.8ZM30.26 25.51C31.25 26.22 32.33 27.03 33.52 27.94C32.55 28.83 31.59 29.73 30.65 30.68C29.71 31.62 28.81 32.58 27.92 33.55C27.03 32.39 26.22 31.3 25.49 30.29C26.02 29.23 26.57 28.2 27.15 27.18C28.17 26.6 29.21 26.05 30.27 25.52L30.26 25.51ZM28.46 24.95C28.56 24.78 28.67 24.63 28.78 24.46C28.87 24.52 28.95 24.58 29.04 24.64C28.84 24.74 28.66 24.85 28.46 24.95ZM65.95 11.07C67.09 11.38 68.23 11.72 69.36 12.1C69.56 13.33 69.76 14.69 69.95 16.13C68.64 16.07 67.32 16.03 65.99 16.03C64.66 16.03 63.34 16.07 62.03 16.13C62.22 14.67 62.42 13.31 62.62 12.07C63.72 11.7 64.83 11.37 65.94 11.07H65.95ZM62.88 10.59C62.9 10.5 62.91 10.41 62.93 10.31C63.09 10.35 63.24 10.39 63.4 10.43C63.23 10.48 63.05 10.53 62.88 10.59ZM68.52 10.41C68.7 10.37 68.87 10.34 69.05 10.3C69.07 10.4 69.08 10.49 69.1 10.59C68.91 10.53 68.71 10.47 68.52 10.41ZM65.99 17.37C67.38 17.37 68.75 17.41 70.12 17.48C70.22 18.26 70.31 19.08 70.41 19.92C68.94 20.64 67.47 21.4 65.99 22.23C64.51 21.41 63.04 20.64 61.57 19.92C61.66 19.08 61.76 18.26 61.86 17.48C63.23 17.41 64.6 17.37 65.99 17.37ZM114.78 51.71C114.71 51.29 114.64 50.87 114.56 50.45C114.69 50.7 114.83 50.94 114.96 51.19C114.9 51.37 114.84 51.54 114.78 51.72V51.71ZM114.97 80.9C114.83 81.16 114.69 81.41 114.55 81.67C114.63 81.23 114.71 80.78 114.78 80.34C114.84 80.53 114.91 80.72 114.97 80.9ZM114.64 66.02C114.64 67.41 114.6 68.78 114.53 70.15C113.75 70.25 112.93 70.34 112.09 70.44C111.37 68.97 110.61 67.5 109.78 66.02C110.6 64.54 111.37 63.07 112.09 61.6C112.93 61.69 113.75 61.79 114.53 61.89C114.6 63.26 114.64 64.63 114.64 66.02ZM85.23 112.47C83.62 112.85 81.97 113.17 80.3 113.45C81.06 111.04 81.77 108.45 82.41 105.67C84.82 107.18 87.16 108.52 89.4 109.68C88.02 110.65 86.64 111.59 85.23 112.46V112.47ZM89.24 112.79C88.51 114.13 87.74 115.41 86.95 116.62C85.53 116.33 84.09 115.96 82.62 115.54C83.66 114.96 84.69 114.36 85.72 113.73C86.91 113.45 88.08 113.13 89.24 112.8V112.79ZM46.75 112.47C45.34 111.6 43.95 110.66 42.57 109.69C44.81 108.53 47.15 107.19 49.56 105.68C50.2 108.46 50.91 111.05 51.67 113.46C50.01 113.18 48.36 112.86 46.75 112.48V112.47ZM49.35 115.54C47.88 115.97 46.44 116.33 45.03 116.62C44.24 115.41 43.47 114.13 42.74 112.79C43.9 113.12 45.07 113.44 46.26 113.72C47.29 114.35 48.32 114.96 49.36 115.54H49.35ZM17.2 80.34C17.28 80.79 17.35 81.23 17.43 81.67C17.29 81.41 17.15 81.16 17.01 80.9C17.07 80.71 17.14 80.52 17.2 80.34ZM17.02 51.19C17.15 50.94 17.28 50.7 17.42 50.45C17.34 50.87 17.27 51.29 17.2 51.71C17.14 51.53 17.08 51.36 17.02 51.18V51.19ZM17.34 66.03C17.34 64.64 17.38 63.27 17.45 61.9C18.23 61.8 19.05 61.71 19.89 61.61C20.61 63.08 21.37 64.55 22.2 66.03C21.38 67.51 20.61 68.98 19.89 70.45C19.05 70.36 18.23 70.26 17.45 70.16C17.38 68.79 17.34 67.42 17.34 66.03ZM46.71 19.59C48.34 19.21 50 18.88 51.68 18.59C50.91 21.01 50.2 23.62 49.56 26.42C47.51 25.14 45.5 23.96 43.54 22.91C43.2 22.73 42.86 22.56 42.53 22.39C43.91 21.41 45.3 20.47 46.72 19.59H46.71ZM42.74 19.26C43.47 17.92 44.24 16.65 45.03 15.44C46.44 15.73 47.87 16.09 49.33 16.51C48.27 17.1 47.22 17.71 46.19 18.35C45.03 18.63 43.88 18.94 42.74 19.26ZM82.74 35.6C82.92 36.68 83.08 37.79 83.24 38.9C80.77 41.09 78.22 43.4 75.62 45.82C75.21 45.8 74.8 45.79 74.38 45.77C74.07 45.49 73.77 45.2 73.46 44.92C73.33 41.45 73.16 37.99 72.96 34.61C73.84 33.94 74.72 33.29 75.59 32.66C76.96 32.77 78.32 32.9 79.67 33.05C80.7 33.87 81.73 34.73 82.75 35.6H82.74ZM82.13 33.35C82.21 33.36 82.28 33.37 82.36 33.38C82.37 33.44 82.38 33.5 82.39 33.56C82.3 33.49 82.21 33.41 82.13 33.34V33.35ZM95.48 34.66C94.13 34.3 92.77 33.96 91.37 33.65C92.41 32.78 93.42 31.95 94.38 31.17C94.76 32.31 95.13 33.47 95.48 34.66ZM93.69 25.62C94.59 26.35 95.48 27.1 96.36 27.88C95.92 28.23 95.46 28.59 94.99 28.96C94.58 27.82 94.14 26.71 93.69 25.62ZM95.89 36.13C96.41 38.01 96.87 39.95 97.29 41.94C96.42 42.97 95.49 44.05 94.54 45.15C93.33 43.83 92.09 42.52 90.8 41.23C89.51 39.94 88.19 38.7 86.87 37.48C87.98 36.52 89.05 35.61 90.09 34.73C92.08 35.15 94.01 35.62 95.9 36.13H95.89ZM94.38 100.89C93.41 100.11 92.41 99.28 91.37 98.41C92.77 98.1 94.13 97.76 95.48 97.4C95.13 98.59 94.77 99.75 94.38 100.89ZM94.99 103.1C95.46 103.47 95.92 103.84 96.36 104.19C95.48 104.97 94.58 105.73 93.68 106.46C94.13 105.37 94.57 104.25 94.99 103.11V103.1ZM90.08 97.34C89.05 96.47 87.97 95.54 86.87 94.59C88.19 93.38 89.5 92.14 90.8 90.85C92.09 89.56 93.33 88.25 94.54 86.92C95.5 88.02 96.42 89.1 97.29 90.13C96.87 92.12 96.4 94.05 95.89 95.94C94.01 96.46 92.07 96.92 90.08 97.34ZM79.65 99.02C78.34 99.17 77.01 99.3 75.67 99.41C74.77 98.76 73.87 98.09 72.96 97.41C73.16 94.04 73.32 90.6 73.46 87.16C73.77 86.87 74.08 86.59 74.39 86.3C74.8 86.28 75.21 86.27 75.61 86.25C78.22 88.67 80.76 90.98 83.23 93.17C83.07 94.29 82.91 95.4 82.73 96.48C81.71 97.35 80.68 98.2 79.64 99.02H79.65ZM82.39 98.49C82.38 98.56 82.37 98.62 82.36 98.69C82.28 98.7 82.19 98.72 82.11 98.73C82.21 98.65 82.3 98.57 82.39 98.49ZM82.1 100.06C81.89 101.18 81.67 102.28 81.44 103.36C80.51 102.76 79.57 102.13 78.63 101.49C79.15 101.1 79.67 100.71 80.18 100.3C80.82 100.22 81.47 100.15 82.1 100.06ZM77.68 100.56C77.62 100.61 77.55 100.65 77.49 100.7C77.44 100.66 77.39 100.63 77.34 100.59C77.45 100.58 77.57 100.57 77.68 100.56ZM60.27 112.75C60.34 113.34 60.4 113.93 60.47 114.5C59.29 114.42 58.12 114.33 56.96 114.21C58.06 113.76 59.16 113.27 60.27 112.75ZM60.27 96.46C60.12 93.91 59.99 91.22 59.87 88.39C61.56 89.91 63.23 91.37 64.9 92.78C63.34 94.06 61.8 95.29 60.26 96.47L60.27 96.46ZM60.47 99.66C60.44 99.17 60.4 98.66 60.37 98.15C62.22 96.73 64.09 95.24 65.98 93.67C67.87 95.24 69.74 96.73 71.59 98.15C71.56 98.66 71.53 99.16 71.49 99.66C69.67 99.74 67.83 99.79 65.97 99.79C64.11 99.79 62.27 99.74 60.45 99.66H60.47ZM71.69 112.75C72.8 113.27 73.9 113.75 75 114.21C73.84 114.33 72.67 114.43 71.49 114.5C71.56 113.93 71.63 113.34 71.69 112.75ZM67.06 92.77C68.73 91.36 70.41 89.9 72.09 88.39C71.98 91.22 71.84 93.91 71.7 96.46C70.17 95.28 68.62 94.05 67.06 92.77ZM65.98 91.88C63.93 90.17 61.86 88.37 59.8 86.5C59.8 86.46 59.8 86.42 59.8 86.38C61.84 86.44 63.9 86.47 65.99 86.47C68.08 86.47 70.14 86.44 72.18 86.38C72.18 86.42 72.18 86.46 72.18 86.5C70.12 88.37 68.05 90.17 66 91.88H65.98ZM65.98 85.13C63.88 85.13 61.8 85.1 59.75 85.04C59.73 84.42 59.71 83.78 59.69 83.15C61.76 81.19 63.86 79.18 65.98 77.11C68.1 79.17 70.2 81.19 72.27 83.15C72.25 83.79 72.23 84.42 72.21 85.05C70.15 85.11 68.08 85.14 65.98 85.14V85.13ZM52.32 99.03C51.29 98.21 50.26 97.36 49.23 96.49C49.05 95.41 48.89 94.3 48.73 93.18C51.2 90.99 53.75 88.68 56.36 86.26C56.77 86.28 57.17 86.29 57.58 86.31C57.89 86.6 58.2 86.88 58.51 87.17C58.64 90.62 58.81 94.06 59.01 97.43C58.1 98.11 57.2 98.78 56.3 99.43C54.96 99.32 53.63 99.19 52.32 99.04V99.03ZM54.63 100.6C54.58 100.64 54.53 100.67 54.48 100.71C54.42 100.66 54.35 100.62 54.29 100.57C54.4 100.58 54.52 100.59 54.63 100.6ZM53.34 101.49C52.39 102.14 51.45 102.76 50.53 103.36C50.3 102.28 50.08 101.18 49.87 100.06C50.51 100.15 51.15 100.22 51.79 100.3C52.31 100.71 52.82 101.09 53.34 101.49ZM49.86 98.73C49.78 98.72 49.69 98.7 49.61 98.69C49.6 98.62 49.59 98.56 49.58 98.49C49.67 98.57 49.77 98.65 49.87 98.73H49.86ZM36.49 97.42C37.83 97.78 39.2 98.12 40.6 98.43C39.57 99.29 38.57 100.11 37.59 100.91C37.21 99.77 36.84 98.61 36.49 97.42ZM38.28 106.47C37.38 105.74 36.48 104.98 35.6 104.2C36.04 103.85 36.5 103.49 36.97 103.11C37.39 104.26 37.83 105.37 38.28 106.46V106.47ZM36.07 95.95C35.55 94.07 35.09 92.13 34.67 90.14C35.54 89.11 36.47 88.03 37.42 86.93C38.63 88.25 39.87 89.56 41.16 90.86C42.45 92.15 43.76 93.39 45.08 94.6C43.99 95.55 42.92 96.47 41.87 97.36C39.89 96.94 37.95 96.48 36.07 95.96V95.95ZM37.58 31.19C38.56 31.99 39.56 32.81 40.59 33.67C39.19 33.98 37.83 34.32 36.49 34.68C36.84 33.49 37.2 32.33 37.59 31.19H37.58ZM36.97 28.98C36.5 28.6 36.04 28.24 35.59 27.89C36.48 27.11 37.37 26.35 38.28 25.61C37.83 26.71 37.38 27.83 36.97 28.98ZM41.87 34.75C42.92 35.64 43.99 36.56 45.08 37.51C43.76 38.72 42.45 39.96 41.16 41.25C39.87 42.54 38.63 43.85 37.42 45.17C36.46 44.07 35.54 42.99 34.67 41.96C35.09 39.97 35.56 38.04 36.07 36.15C37.95 35.63 39.88 35.17 41.87 34.75ZM52.3 33.07C53.64 32.92 55 32.78 56.38 32.68C57.25 33.31 58.13 33.96 59.01 34.63C58.81 38.01 58.64 41.48 58.51 44.94C58.2 45.22 57.9 45.51 57.59 45.79C57.18 45.81 56.76 45.82 56.35 45.84C53.74 43.42 51.19 41.11 48.72 38.92C48.88 37.8 49.04 36.7 49.22 35.62C50.24 34.75 51.27 33.89 52.3 33.07ZM49.57 33.59C49.58 33.53 49.59 33.47 49.6 33.41C49.68 33.4 49.75 33.39 49.83 33.38C49.74 33.45 49.65 33.52 49.57 33.6V33.59ZM49.85 32.03C50.06 30.89 50.29 29.77 50.52 28.67C51.46 29.28 52.4 29.91 53.35 30.56C52.82 30.96 52.3 31.38 51.77 31.79C51.12 31.87 50.48 31.94 49.84 32.03H49.85ZM54.31 31.53C54.38 31.48 54.45 31.42 54.52 31.37C54.58 31.41 54.64 31.45 54.7 31.5C54.57 31.51 54.44 31.52 54.31 31.54V31.53ZM71.68 19.33C71.61 18.74 71.55 18.16 71.48 17.59C72.65 17.66 73.82 17.76 74.97 17.88C73.88 18.33 72.78 18.81 71.68 19.32V19.33ZM71.68 35.59C71.83 38.16 71.97 40.87 72.08 43.73C70.39 42.21 68.7 40.74 67.01 39.32C68.57 38.03 70.13 36.79 71.68 35.59ZM71.48 32.44C71.51 32.95 71.55 33.46 71.58 33.98C69.72 35.4 67.84 36.89 65.96 38.44C64.08 36.88 62.21 35.4 60.34 33.98C60.37 33.46 60.41 32.95 60.44 32.44C62.26 32.36 64.1 32.31 65.96 32.31C67.82 32.31 69.66 32.36 71.48 32.44ZM60.26 19.33C59.16 18.81 58.06 18.34 56.97 17.89C58.13 17.77 59.29 17.67 60.47 17.6C60.4 18.17 60.33 18.75 60.27 19.34L60.26 19.33ZM64.92 39.31C63.23 40.73 61.54 42.2 59.85 43.72C59.96 40.86 60.1 38.15 60.25 35.58C61.8 36.78 63.36 38.02 64.92 39.31ZM65.96 40.18C68.02 41.91 70.08 43.71 72.14 45.58C72.14 45.63 72.14 45.67 72.14 45.72C70.1 45.66 68.04 45.63 65.95 45.63C63.86 45.63 61.8 45.66 59.76 45.72C59.76 45.67 59.76 45.63 59.76 45.58C61.82 43.71 63.88 41.9 65.94 40.18H65.96ZM65.96 46.97C68.06 46.97 70.14 47 72.19 47.06C72.21 47.68 72.23 48.32 72.25 48.96C70.18 50.92 68.08 52.93 65.96 55C63.84 52.94 61.74 50.92 59.67 48.96C59.69 48.33 59.71 47.69 59.73 47.06C61.79 47 63.86 46.97 65.96 46.97ZM72.79 32.49C73.02 32.5 73.25 32.52 73.48 32.54C73.26 32.7 73.04 32.86 72.82 33.02C72.81 32.84 72.8 32.67 72.79 32.49ZM73.43 99.56C73.21 99.57 73 99.59 72.79 99.6C72.8 99.43 72.81 99.27 72.82 99.1C73.02 99.25 73.23 99.4 73.43 99.55V99.56ZM72.7 31.15C72.62 30.02 72.54 28.91 72.46 27.81C73.74 28.67 75.02 29.57 76.3 30.52C75.92 30.79 75.54 31.05 75.16 31.32C74.34 31.26 73.53 31.2 72.7 31.15ZM65.95 72.58C65.03 72.58 64.14 72.58 63.25 72.58C62.61 71.95 61.98 71.32 61.33 70.68C60.68 70.03 60.06 69.4 59.43 68.76C59.43 67.86 59.43 66.97 59.43 66.06C59.43 65.15 59.43 64.25 59.43 63.36C60.06 62.72 60.69 62.09 61.33 61.44C61.98 60.79 62.61 60.17 63.24 59.54C64.14 59.54 65.03 59.54 65.94 59.54C66.85 59.54 67.75 59.54 68.64 59.54C69.28 60.17 69.92 60.8 70.55 61.44C71.2 62.09 71.82 62.72 72.45 63.36C72.45 64.26 72.45 65.15 72.45 66.06C72.45 66.97 72.45 67.87 72.45 68.76C71.82 69.4 71.19 70.03 70.55 70.68C69.91 71.32 69.27 71.95 68.64 72.58C67.74 72.58 66.85 72.58 65.94 72.58H65.95ZM67.29 73.91C66.84 74.35 66.39 74.79 65.95 75.23C65.5 74.79 65.06 74.35 64.6 73.91C65.05 73.91 65.5 73.91 65.95 73.91C66.4 73.91 66.84 73.91 67.29 73.91ZM64.6 58.18C65.05 57.74 65.5 57.29 65.95 56.86C66.4 57.3 66.85 57.74 67.29 58.18C66.84 58.18 66.39 58.18 65.95 58.18C65.51 58.18 65.05 58.18 64.6 58.18ZM72.46 61.43C72.14 61.11 71.83 60.79 71.51 60.48C71.19 60.17 70.87 59.85 70.56 59.53C71.2 59.53 71.82 59.54 72.44 59.55C72.44 60.18 72.45 60.8 72.46 61.44V61.43ZM69.21 58.18C68.44 57.42 67.67 56.66 66.91 55.91C68.76 54.11 70.55 52.38 72.3 50.73C72.36 53.14 72.41 55.63 72.44 58.21C71.35 58.2 70.28 58.19 69.22 58.18H69.21ZM64.99 55.92C64.23 56.67 63.46 57.42 62.69 58.18C61.63 58.18 60.55 58.2 59.47 58.21C59.5 55.63 59.55 53.14 59.61 50.74C61.39 52.43 63.18 54.15 64.99 55.92ZM61.34 59.53C61.02 59.85 60.7 60.16 60.39 60.48C60.08 60.79 59.76 61.11 59.44 61.43C59.44 60.8 59.45 60.17 59.46 59.55C60.09 59.55 60.71 59.54 61.34 59.53ZM59.21 31.14C58.39 31.18 57.57 31.25 56.76 31.31C56.38 31.04 56 30.77 55.62 30.51C56.9 29.57 58.18 28.67 59.46 27.8C59.37 28.9 59.29 30.02 59.22 31.15L59.21 31.14ZM59.09 33.02C58.87 32.85 58.65 32.7 58.43 32.54C58.66 32.53 58.89 32.51 59.12 32.49C59.11 32.67 59.1 32.84 59.09 33.02ZM59.12 99.6C58.9 99.59 58.69 99.57 58.48 99.56C58.68 99.41 58.89 99.26 59.09 99.1C59.1 99.27 59.11 99.43 59.12 99.6ZM46.97 72.28C46.91 70.22 46.88 68.15 46.88 66.05C46.88 63.95 46.91 61.87 46.97 59.82C47.6 59.8 48.25 59.78 48.89 59.76C50.91 61.9 52.93 64.01 54.91 66.05C52.93 68.09 50.91 70.2 48.89 72.34C48.25 72.32 47.6 72.3 46.97 72.28ZM47.69 73.61C47.53 73.78 47.38 73.94 47.22 74.11C47.15 74.04 47.09 73.97 47.02 73.9C47.02 73.8 47.02 73.7 47.01 73.59C47.24 73.59 47.46 73.6 47.68 73.61H47.69ZM47.02 58.5C47.02 58.4 47.02 58.3 47.03 58.2C47.1 58.13 47.16 58.05 47.23 57.98C47.38 58.15 47.54 58.31 47.69 58.47C47.46 58.47 47.24 58.48 47.02 58.49V58.5ZM55.84 66.99C56.6 67.77 57.36 68.54 58.1 69.29C58.1 70.35 58.12 71.43 58.13 72.52C55.55 72.49 53.06 72.44 50.65 72.38C52.31 70.63 54.04 68.84 55.84 66.99ZM58.09 67.38C57.64 66.93 57.21 66.48 56.77 66.03C57.21 65.58 57.64 65.14 58.09 64.68C58.09 65.13 58.09 65.58 58.09 66.03C58.09 66.48 58.09 66.93 58.09 67.37V67.38ZM58.09 62.78C57.34 63.54 56.59 64.3 55.83 65.08C54.03 63.23 52.3 61.43 50.64 59.69C53.05 59.63 55.54 59.58 58.12 59.55C58.11 60.64 58.1 61.72 58.09 62.78ZM49.43 58.42C48.99 57.95 48.54 57.48 48.11 57.02C49.52 55.52 50.97 54.03 52.45 52.54C53.93 51.06 55.42 49.62 56.91 48.2C57.38 48.64 57.85 49.08 58.32 49.52C58.23 52.46 58.17 55.38 58.13 58.21C55.29 58.25 52.37 58.31 49.43 58.4V58.42ZM51.51 51.6C50.03 53.08 48.6 54.56 47.2 56.04C47.17 56.01 47.14 55.98 47.12 55.95C47.26 53.17 47.45 50.44 47.69 47.78C50.35 47.54 53.07 47.35 55.85 47.21C55.88 47.24 55.92 47.27 55.95 47.3C54.47 48.7 52.99 50.14 51.52 51.6H51.51ZM47.43 37.79C47.31 37.69 47.19 37.58 47.08 37.48C47.23 37.34 47.38 37.21 47.53 37.07C47.5 37.31 47.46 37.55 47.43 37.79ZM47.21 39.38C46.9 41.68 46.63 44.06 46.41 46.5C43.96 46.73 41.59 47 39.28 47.31C38.94 46.93 38.61 46.55 38.28 46.17C39.51 44.83 40.77 43.49 42.09 42.18C43.4 40.87 44.74 39.61 46.08 38.38C46.46 38.71 46.84 39.05 47.22 39.38H47.21ZM46.29 47.9C46.1 50.07 45.95 52.3 45.83 54.56C43.9 52.48 42.1 50.48 40.4 48.57C42.32 48.32 44.28 48.09 46.29 47.9ZM46.29 84.17C44.29 83.97 42.32 83.75 40.4 83.5C42.1 81.59 43.9 79.6 45.83 77.51C45.95 79.78 46.1 82 46.29 84.17ZM46.41 85.57C46.64 88.01 46.91 90.38 47.21 92.69C46.83 93.03 46.45 93.37 46.07 93.7C44.73 92.47 43.4 91.21 42.09 89.9C40.77 88.58 39.51 87.25 38.28 85.91C38.61 85.54 38.94 85.16 39.28 84.77C41.59 85.08 43.97 85.35 46.41 85.58V85.57ZM47.43 94.28C47.46 94.52 47.5 94.77 47.53 95.02C47.37 94.88 47.22 94.75 47.06 94.61C47.18 94.5 47.31 94.39 47.43 94.29V94.28ZM47.11 76.12C47.11 76.12 47.17 76.06 47.19 76.03C48.59 77.52 50.03 79 51.5 80.47C52.97 81.94 54.45 83.38 55.93 84.77C55.9 84.8 55.86 84.83 55.83 84.86C53.05 84.73 50.33 84.53 47.67 84.29C47.43 81.63 47.24 78.9 47.1 76.12H47.11ZM52.45 79.52C50.97 78.04 49.52 76.55 48.11 75.05C48.54 74.59 48.99 74.12 49.43 73.65C52.38 73.74 55.3 73.8 58.13 73.84C58.17 76.68 58.23 79.59 58.32 82.53C57.85 82.97 57.38 83.42 56.92 83.85C55.43 82.44 53.94 81 52.45 79.52ZM58.38 84.32C58.38 84.54 58.39 84.75 58.4 84.97C58.3 84.97 58.2 84.97 58.1 84.96C58.03 84.9 57.96 84.84 57.9 84.77C58.06 84.62 58.22 84.47 58.38 84.32ZM58.38 47.74C58.22 47.59 58.06 47.44 57.9 47.29C57.97 47.23 58.03 47.17 58.1 47.11C58.2 47.11 58.3 47.11 58.41 47.1C58.41 47.32 58.4 47.53 58.39 47.75L58.38 47.74ZM54.45 45.91C52.19 46.03 49.97 46.18 47.81 46.37C48.01 44.37 48.23 42.41 48.48 40.5C50.43 42.23 52.42 44.04 54.45 45.92V45.91ZM47.85 34.99C47.24 35.51 46.64 36.03 46.04 36.57C45.18 35.82 44.33 35.09 43.5 34.38C45 34.09 46.53 33.83 48.08 33.6C48 34.06 47.92 34.52 47.85 34.99ZM37.71 47.51C37.46 47.55 37.2 47.58 36.96 47.62C37.1 47.46 37.24 47.3 37.38 47.14C37.49 47.27 37.6 47.39 37.71 47.52V47.51ZM36.49 46.12C35.95 46.72 35.43 47.33 34.9 47.94C34.43 48.02 33.97 48.09 33.51 48.17C33.74 46.62 34 45.08 34.29 43.58C35.01 44.42 35.74 45.27 36.48 46.12H36.49ZM33.56 40.65C32.69 39.61 31.86 38.6 31.08 37.64C32.22 37.26 33.38 36.89 34.57 36.54C34.21 37.89 33.87 39.25 33.56 40.65ZM33.29 49.66C33.35 49.65 33.41 49.64 33.47 49.63C33.4 49.72 33.32 49.81 33.25 49.89C33.26 49.81 33.27 49.74 33.28 49.66H33.29ZM35.5 49.28C36.59 49.1 37.71 48.94 38.83 48.78C41.07 51.3 43.39 53.85 45.73 56.38C45.71 56.8 45.7 57.22 45.68 57.64C45.39 57.95 45.11 58.26 44.82 58.56C41.35 58.69 37.89 58.86 34.51 59.06C33.84 58.18 33.19 57.3 32.56 56.43C32.67 55.06 32.8 53.71 32.95 52.37C33.77 51.34 34.62 50.31 35.49 49.28H35.5ZM45.61 72.21C45.61 72.21 45.52 72.21 45.47 72.21C43.6 70.16 41.81 68.1 40.09 66.05C41.81 63.99 43.61 61.92 45.49 59.85C45.53 59.85 45.57 59.85 45.61 59.85C45.55 61.89 45.52 63.95 45.52 66.04C45.52 68.13 45.55 70.19 45.61 72.22V72.21ZM39.22 67.09C40.63 68.77 42.1 70.45 43.61 72.13C40.77 72.02 38.08 71.88 35.53 71.73C36.71 70.19 37.94 68.64 39.22 67.08V67.09ZM39.19 64.97C37.9 63.41 36.66 61.86 35.47 60.31C38.04 60.16 40.74 60.03 43.6 59.91C42.07 61.6 40.6 63.29 39.19 64.97ZM32.91 59.16C32.73 59.17 32.56 59.18 32.38 59.19C32.39 58.96 32.41 58.73 32.43 58.5C32.59 58.72 32.75 58.94 32.91 59.16ZM33.86 60.41C35.28 62.27 36.76 64.14 38.31 66.01C36.74 67.9 35.24 69.78 33.83 71.64C33.32 71.61 32.82 71.58 32.32 71.54C32.24 69.72 32.19 67.88 32.19 66.02C32.19 64.16 32.24 62.32 32.32 60.5C32.83 60.47 33.34 60.43 33.86 60.4V60.41ZM32.88 72.89C32.73 73.09 32.57 73.3 32.42 73.5C32.41 73.29 32.39 73.07 32.38 72.86C32.55 72.87 32.71 72.88 32.88 72.89ZM34.57 72.99C37.94 73.19 41.38 73.35 44.82 73.49C45.1 73.8 45.39 74.1 45.67 74.41C45.69 74.83 45.7 75.26 45.72 75.67C43.38 78.2 41.06 80.75 38.82 83.27C37.69 83.11 36.58 82.95 35.49 82.77C34.62 81.75 33.77 80.72 32.95 79.68C32.8 78.37 32.67 77.04 32.56 75.7C33.21 74.8 33.88 73.9 34.56 72.99H34.57ZM37.71 84.54C37.6 84.67 37.49 84.79 37.38 84.92C37.24 84.76 37.1 84.6 36.96 84.44C37.21 84.48 37.46 84.51 37.71 84.55V84.54ZM33.48 82.42C33.42 82.41 33.36 82.4 33.3 82.39C33.29 82.31 33.28 82.24 33.27 82.16C33.34 82.25 33.42 82.34 33.49 82.42H33.48ZM33.56 91.4C33.87 92.8 34.21 94.16 34.57 95.51C33.38 95.16 32.22 94.8 31.08 94.41C31.86 93.44 32.69 92.44 33.56 91.4ZM34.3 88.47C34.01 86.97 33.75 85.43 33.52 83.88C33.98 83.96 34.44 84.04 34.91 84.11C35.43 84.72 35.96 85.33 36.5 85.93C35.76 86.78 35.02 87.63 34.31 88.47H34.3ZM46.06 95.46C46.66 96 47.25 96.54 47.86 97.06C47.93 97.52 48.01 97.98 48.09 98.44C46.54 98.21 45.01 97.95 43.51 97.66C44.35 96.94 45.2 96.21 46.07 95.46H46.06ZM47.81 85.68C49.98 85.87 52.19 86.02 54.45 86.14C52.42 88.01 50.42 89.82 48.48 91.56C48.23 89.65 48 87.69 47.81 85.69V85.68ZM56.8 100.76C57.6 100.82 58.4 100.88 59.2 100.92C59.28 102.05 59.36 103.17 59.45 104.27C58.18 103.41 56.91 102.51 55.65 101.58C56.03 101.31 56.41 101.04 56.8 100.76ZM59.44 70.63C59.76 70.95 60.08 71.27 60.39 71.58C60.71 71.9 61.03 72.21 61.34 72.53C60.7 72.53 60.08 72.52 59.46 72.51C59.46 71.89 59.45 71.26 59.44 70.63ZM62.69 73.88C63.46 74.64 64.23 75.39 64.99 76.14C63.18 77.9 61.38 79.63 59.61 81.32C59.55 78.92 59.5 76.43 59.47 73.85C60.56 73.86 61.63 73.87 62.69 73.88ZM66.9 76.15C67.67 75.4 68.43 74.64 69.2 73.88C70.26 73.88 71.34 73.86 72.42 73.85C72.39 76.43 72.34 78.92 72.28 81.33C70.54 79.67 68.74 77.95 66.89 76.14L66.9 76.15ZM70.56 72.54C70.88 72.22 71.2 71.91 71.51 71.59C71.82 71.27 72.14 70.95 72.46 70.64C72.46 71.27 72.45 71.9 72.44 72.52C71.81 72.52 71.19 72.53 70.56 72.54ZM72.69 100.93C73.5 100.89 74.3 100.83 75.09 100.77C75.48 101.05 75.86 101.32 76.24 101.59C74.98 102.52 73.71 103.43 72.44 104.28C72.53 103.18 72.61 102.06 72.69 100.93ZM73.56 82.54C73.65 79.59 73.71 76.67 73.75 73.83C76.59 73.79 79.51 73.72 82.45 73.64C82.89 74.11 83.34 74.58 83.77 75.04C82.36 76.54 80.91 78.03 79.43 79.51C77.95 80.99 76.45 82.44 74.96 83.85C74.5 83.42 74.03 82.98 73.56 82.53V82.54ZM73.98 84.76C73.91 84.82 73.84 84.88 73.78 84.95C73.68 84.95 73.58 84.95 73.48 84.96C73.48 84.74 73.49 84.53 73.5 84.31C73.66 84.46 73.82 84.61 73.98 84.76ZM84.92 59.79C84.98 61.85 85.01 63.92 85.01 66.02C85.01 68.12 84.98 70.2 84.92 72.25C84.3 72.27 83.66 72.29 83.02 72.31C81.06 70.24 79.05 68.14 76.98 66.02C79.04 63.9 81.06 61.8 83.02 59.73C83.66 59.75 84.29 59.77 84.92 59.79ZM84.22 58.46C84.37 58.3 84.52 58.14 84.67 57.98C84.73 58.05 84.8 58.12 84.86 58.18C84.86 58.28 84.86 58.38 84.87 58.48C84.65 58.48 84.44 58.47 84.22 58.46ZM84.87 73.57C84.87 73.67 84.87 73.77 84.86 73.88C84.8 73.95 84.74 74.01 84.68 74.08C84.53 73.92 84.38 73.76 84.22 73.6C84.44 73.6 84.65 73.59 84.87 73.58V73.57ZM73.8 64.68C74.25 65.13 74.68 65.58 75.12 66.03C74.68 66.48 74.25 66.92 73.8 67.38C73.8 66.93 73.8 66.48 73.8 66.04C73.8 65.6 73.8 65.14 73.8 64.69V64.68ZM76.06 66.98C77.86 68.83 79.59 70.62 81.25 72.37C78.84 72.43 76.35 72.48 73.77 72.51C73.78 71.42 73.79 70.35 73.8 69.29C74.56 68.52 75.32 67.75 76.07 66.99L76.06 66.98ZM76.06 65.07C75.31 64.3 74.55 63.54 73.79 62.77C73.79 61.71 73.77 60.63 73.76 59.55C76.34 59.58 78.83 59.63 81.24 59.69C79.58 61.43 77.86 63.23 76.05 65.08L76.06 65.07ZM80.37 80.46C81.84 78.99 83.28 77.51 84.68 76.02C84.71 76.05 84.74 76.08 84.76 76.11C84.62 78.89 84.43 81.62 84.19 84.28C81.53 84.52 78.8 84.71 76.01 84.85C75.98 84.82 75.95 84.79 75.92 84.77C77.4 83.37 78.88 81.94 80.36 80.46H80.37ZM84.45 94.27C84.57 94.38 84.7 94.49 84.82 94.59C84.66 94.73 84.51 94.86 84.35 95C84.39 94.76 84.42 94.51 84.45 94.26V94.27ZM84.67 92.69C84.98 90.38 85.25 88 85.48 85.56C87.93 85.33 90.3 85.06 92.61 84.75C92.95 85.13 93.28 85.51 93.61 85.89C92.38 87.23 91.12 88.57 89.8 89.88C88.49 91.19 87.15 92.46 85.81 93.69C85.44 93.36 85.06 93.03 84.67 92.69ZM85.6 84.15C85.79 81.98 85.94 79.75 86.06 77.49C87.99 79.57 89.79 81.57 91.49 83.48C89.57 83.73 87.61 83.96 85.6 84.15ZM85.6 47.88C87.6 48.08 89.57 48.3 91.49 48.55C89.79 50.46 87.99 52.45 86.06 54.54C85.94 52.27 85.79 50.05 85.6 47.88ZM85.48 46.48C85.25 44.03 84.98 41.66 84.67 39.35C85.05 39.01 85.43 38.69 85.8 38.36C87.14 39.59 88.48 40.85 89.8 42.16C91.12 43.48 92.38 44.81 93.61 46.15C93.28 46.52 92.95 46.9 92.61 47.29C90.3 46.98 87.92 46.71 85.48 46.48ZM84.46 37.77C84.43 37.53 84.39 37.29 84.36 37.05C84.51 37.18 84.66 37.32 84.82 37.46C84.7 37.56 84.58 37.67 84.47 37.77H84.46ZM84.78 55.93C84.78 55.93 84.72 55.99 84.7 56.02C83.3 54.54 81.87 53.06 80.39 51.58C78.92 50.11 77.44 48.67 75.95 47.27C75.98 47.24 76.01 47.21 76.04 47.19C78.82 47.33 81.55 47.52 84.22 47.76C84.46 50.42 84.65 53.15 84.79 55.94L84.78 55.93ZM79.44 52.53C80.92 54.01 82.37 55.51 83.78 57.01C83.35 57.47 82.91 57.94 82.46 58.41C79.51 58.32 76.59 58.26 73.76 58.22C73.72 55.38 73.65 52.46 73.57 49.51C74.04 49.06 74.51 48.63 74.97 48.19C76.47 49.6 77.96 51.05 79.44 52.53ZM73.51 47.73C73.51 47.51 73.5 47.3 73.49 47.08C73.59 47.08 73.69 47.08 73.8 47.09C73.87 47.15 73.93 47.21 74 47.27C73.84 47.42 73.68 47.57 73.52 47.72L73.51 47.73ZM77.42 86.14C79.69 86.02 81.91 85.87 84.08 85.68C83.88 87.68 83.66 89.65 83.41 91.57C81.5 89.87 79.51 88.07 77.42 86.14ZM84.04 97.07C84.64 96.55 85.24 96 85.84 95.47C86.7 96.22 87.56 96.96 88.4 97.67C86.9 97.96 85.37 98.22 83.82 98.45C83.9 97.99 83.97 97.54 84.05 97.07H84.04ZM94.2 84.54C94.44 84.5 94.69 84.47 94.94 84.44C94.8 84.6 94.67 84.75 94.53 84.91C94.42 84.79 94.31 84.66 94.21 84.54H94.2ZM95.41 85.93C95.95 85.33 96.47 84.72 96.99 84.12C97.46 84.04 97.92 83.97 98.38 83.89C98.15 85.44 97.89 86.97 97.6 88.47C96.89 87.63 96.16 86.79 95.41 85.93ZM98.33 91.41C99.2 92.45 100.03 93.46 100.81 94.42C99.67 94.8 98.51 95.17 97.32 95.52C97.68 94.17 98.02 92.81 98.33 91.41ZM98.6 82.4C98.54 82.41 98.48 82.42 98.42 82.43C98.49 82.34 98.57 82.25 98.64 82.17C98.63 82.25 98.62 82.32 98.61 82.4H98.6ZM96.39 82.78C95.31 82.96 94.2 83.12 93.08 83.28C90.89 80.81 88.58 78.26 86.16 75.65C86.18 75.24 86.19 74.83 86.21 74.41C86.49 74.1 86.78 73.8 87.06 73.49C90.51 73.36 93.95 73.19 97.31 72.99C97.99 73.9 98.67 74.8 99.31 75.7C99.2 77.04 99.07 78.37 98.92 79.68C98.1 80.71 97.25 81.74 96.38 82.77L96.39 82.78ZM86.28 59.85C86.28 59.85 86.36 59.85 86.4 59.85C88.28 61.92 90.08 63.99 91.8 66.05C90.08 68.1 88.28 70.16 86.42 72.21C86.37 72.21 86.33 72.21 86.28 72.21C86.34 70.18 86.37 68.12 86.37 66.03C86.37 63.94 86.34 61.88 86.28 59.84V59.85ZM88.29 59.92C91.15 60.03 93.85 60.17 96.42 60.32C95.23 61.87 93.99 63.42 92.7 64.98C91.29 63.3 89.82 61.62 88.29 59.92ZM96.36 71.75C93.81 71.9 91.12 72.03 88.28 72.15C89.79 70.47 91.25 68.79 92.67 67.11C93.95 68.67 95.18 70.22 96.36 71.76V71.75ZM99 72.9C99.17 72.89 99.33 72.88 99.5 72.87C99.49 73.09 99.47 73.3 99.46 73.51C99.31 73.31 99.15 73.1 99 72.9ZM98.05 71.65C96.63 69.79 95.14 67.92 93.57 66.02C95.12 64.14 96.61 62.28 98.02 60.42C98.54 60.45 99.06 60.49 99.56 60.52C99.64 62.34 99.69 64.18 99.69 66.04C99.69 67.9 99.64 69.74 99.56 71.56C99.06 71.59 98.56 71.63 98.05 71.66V71.65ZM98.97 59.17C99.13 58.95 99.29 58.73 99.45 58.51C99.46 58.74 99.48 58.97 99.5 59.2C99.32 59.19 99.15 59.18 98.97 59.17ZM97.37 59.07C93.99 58.87 90.52 58.7 87.06 58.57C86.78 58.26 86.49 57.95 86.2 57.64C86.18 57.23 86.17 56.82 86.15 56.41C88.57 53.8 90.88 51.25 93.07 48.78C94.19 48.94 95.3 49.1 96.38 49.28C97.25 50.3 98.1 51.33 98.92 52.37C99.07 53.71 99.2 55.06 99.31 56.44C98.68 57.31 98.03 58.19 97.36 59.07H97.37ZM94.19 47.52C94.3 47.4 94.41 47.27 94.51 47.15C94.65 47.31 94.78 47.46 94.92 47.62C94.68 47.58 94.43 47.55 94.18 47.52H94.19ZM98.41 49.63C98.47 49.64 98.53 49.65 98.59 49.66C98.6 49.74 98.61 49.81 98.62 49.89C98.55 49.8 98.48 49.71 98.4 49.63H98.41ZM98.33 40.65C98.02 39.25 97.68 37.89 97.32 36.54C98.51 36.89 99.67 37.25 100.81 37.64C100.03 38.61 99.2 39.61 98.33 40.65ZM97.59 43.59C97.88 45.09 98.14 46.62 98.37 48.17C97.91 48.09 97.45 48.01 96.98 47.94C96.46 47.33 95.94 46.73 95.4 46.13C96.15 45.27 96.88 44.42 97.59 43.59ZM85.85 36.58C85.25 36.04 84.64 35.52 84.04 35C83.96 34.53 83.89 34.07 83.81 33.61C85.36 33.84 86.89 34.1 88.39 34.39C87.56 35.1 86.71 35.83 85.85 36.58ZM84.08 46.38C81.91 46.19 79.68 46.04 77.42 45.92C79.5 44 81.5 42.19 83.41 40.49C83.66 42.41 83.89 44.37 84.08 46.38ZM77.22 31.48C77.28 31.44 77.34 31.4 77.4 31.35C77.47 31.4 77.54 31.46 77.61 31.51C77.48 31.5 77.35 31.48 77.22 31.47V31.48ZM80.14 31.78C79.61 31.36 79.09 30.95 78.56 30.55C79.51 29.9 80.46 29.27 81.4 28.66C81.63 29.76 81.86 30.88 82.07 32.02C81.43 31.93 80.79 31.86 80.14 31.78ZM77.42 29.7C75.72 28.44 74.02 27.25 72.31 26.12C72.15 24.25 71.99 22.44 71.8 20.7C73.76 19.77 75.7 18.93 77.62 18.2C77.97 18.25 78.32 18.29 78.66 18.34C79.54 21.06 80.35 24.05 81.08 27.26C79.87 28.04 78.65 28.85 77.41 29.7H77.42ZM77.56 16.84C75.5 16.56 73.41 16.36 71.29 16.23C71.13 14.98 70.96 13.78 70.78 12.64C73.09 13.46 75.4 14.42 77.69 15.51C77.83 15.89 77.97 16.26 78.11 16.65C77.93 16.71 77.76 16.78 77.58 16.85L77.56 16.84ZM70.9 25.19C69.7 24.42 68.49 23.7 67.29 23C68.37 22.41 69.45 21.84 70.52 21.31C70.65 22.54 70.78 23.84 70.9 25.19ZM71.05 26.87C71.16 28.21 71.27 29.62 71.37 31.07C69.58 30.99 67.77 30.94 65.95 30.94C64.13 30.94 62.32 30.99 60.53 31.07C60.63 29.62 60.74 28.21 60.85 26.87C62.55 25.76 64.25 24.7 65.95 23.74C67.65 24.71 69.35 25.77 71.05 26.87ZM61 25.19C61.12 23.84 61.25 22.55 61.38 21.31C62.45 21.84 63.53 22.41 64.61 23C63.41 23.7 62.2 24.42 61 25.18V25.19ZM60.61 16.23C58.49 16.36 56.39 16.57 54.33 16.84C54.15 16.77 53.98 16.71 53.8 16.64C53.94 16.23 54.09 15.84 54.24 15.44C56.51 14.36 58.81 13.41 61.13 12.59C60.95 13.75 60.77 14.95 60.61 16.22V16.23ZM54.27 18.2C56.19 18.93 58.13 19.76 60.09 20.7C59.91 22.44 59.74 24.26 59.58 26.12C57.87 27.24 56.17 28.44 54.47 29.7C53.24 28.85 52.02 28.04 50.8 27.26C51.53 24.05 52.34 21.06 53.22 18.34C53.57 18.29 53.92 18.25 54.26 18.2H54.27ZM50.3 17.48C50.55 17.34 50.8 17.2 51.06 17.06C51.25 17.12 51.45 17.18 51.64 17.24C51.19 17.32 50.75 17.39 50.3 17.47V17.48ZM41.58 21.39C41.66 21.23 41.74 21.07 41.82 20.91C42.07 20.83 42.32 20.76 42.57 20.69C42.24 20.92 41.91 21.16 41.59 21.39H41.58ZM42.86 24.1C44.93 25.21 47.05 26.45 49.21 27.82C48.9 29.25 48.61 30.72 48.33 32.23C46.25 32.54 44.22 32.9 42.22 33.31C40.77 32.09 39.37 30.93 38 29.83C38.73 27.78 39.52 25.82 40.36 23.95C40.65 23.73 40.94 23.5 41.23 23.28C41.77 23.55 42.29 23.81 42.84 24.11L42.86 24.1ZM39.39 23.01C37.72 24.28 36.09 25.62 34.5 27.04C33.46 26.24 32.5 25.52 31.6 24.86C33.84 23.8 36.16 22.84 38.57 21.98C38.92 22.14 39.28 22.3 39.64 22.48C39.56 22.66 39.47 22.84 39.39 23.02V23.01ZM34.56 28.78C35.18 29.26 35.81 29.77 36.48 30.3C35.95 31.85 35.45 33.43 34.98 35.06C33.35 35.52 31.77 36.02 30.22 36.56C29.69 35.9 29.18 35.25 28.7 34.63C29.62 33.62 30.56 32.61 31.54 31.63C32.52 30.65 33.53 29.71 34.55 28.78H34.56ZM28.88 37.03C27.73 37.45 26.62 37.88 25.53 38.34C26.26 37.44 27.02 36.55 27.79 35.66C28.14 36.11 28.51 36.57 28.88 37.03ZM29.73 38.1C30.84 39.47 32.01 40.87 33.22 42.31C32.81 44.3 32.45 46.34 32.14 48.42C30.63 48.69 29.16 48.99 27.73 49.3C26.37 47.14 25.12 45.01 24.01 42.95C23.72 42.41 23.45 41.88 23.18 41.36C23.4 41.06 23.64 40.76 23.87 40.46C25.74 39.62 27.68 38.83 29.72 38.11L29.73 38.1ZM25.1 70.98C23.75 70.86 22.45 70.73 21.22 70.6C21.76 69.52 22.32 68.44 22.91 67.36C23.61 68.57 24.33 69.77 25.1 70.98ZM21.22 61.46C22.46 61.33 23.75 61.2 25.1 61.08C24.33 62.29 23.61 63.49 22.91 64.7C22.31 63.62 21.75 62.54 21.22 61.46ZM23.66 66.03C24.63 64.33 25.67 62.63 26.77 60.93C28.12 60.82 29.53 60.71 30.99 60.6C30.91 62.39 30.86 64.2 30.86 66.02C30.86 67.84 30.91 69.65 30.99 71.44C29.53 71.34 28.12 71.23 26.77 71.11C25.66 69.41 24.62 67.71 23.66 66.01V66.03ZM27.7 59.53C28.56 58.25 29.47 56.97 30.42 55.7C30.69 56.08 30.95 56.45 31.22 56.83C31.16 57.65 31.1 58.46 31.05 59.29C29.92 59.37 28.8 59.45 27.7 59.54V59.53ZM31.05 72.77C31.09 73.58 31.15 74.38 31.21 75.18C30.93 75.56 30.66 75.94 30.39 76.32C29.46 75.06 28.55 73.79 27.7 72.52C28.8 72.61 29.92 72.69 31.05 72.77ZM30.5 78.68C30.89 79.19 31.29 79.7 31.7 80.21C31.78 80.86 31.85 81.5 31.94 82.14C30.82 81.93 29.72 81.71 28.64 81.48C29.24 80.56 29.86 79.62 30.5 78.68ZM31.39 54.75C31.35 54.69 31.3 54.62 31.26 54.56C31.32 54.48 31.38 54.4 31.44 54.32C31.43 54.46 31.41 54.6 31.4 54.75H31.39ZM31.43 77.72C31.38 77.66 31.34 77.59 31.29 77.53C31.33 77.48 31.36 77.43 31.4 77.38C31.41 77.49 31.42 77.61 31.43 77.72ZM31.69 51.83C31.27 52.36 30.86 52.88 30.45 53.41C29.8 52.46 29.17 51.51 28.56 50.57C29.66 50.33 30.78 50.11 31.92 49.89C31.83 50.53 31.76 51.17 31.68 51.82L31.69 51.83ZM29.61 54.55C28.35 56.25 27.16 57.95 26.03 59.66C24.16 59.82 22.34 59.98 20.59 60.17C19.66 58.21 18.84 56.28 18.11 54.37C18.16 54.02 18.2 53.66 18.25 53.31C20.97 52.43 23.96 51.62 27.17 50.89C27.95 52.1 28.76 53.32 29.61 54.56V54.55ZM19.23 60.32C18.64 60.39 18.06 60.45 17.49 60.52C17.56 59.35 17.66 58.18 17.78 57.02C18.23 58.11 18.71 59.21 19.23 60.31V60.32ZM19.23 71.73C18.71 72.83 18.24 73.93 17.79 75.02C17.67 73.86 17.57 72.7 17.5 71.52C18.07 71.59 18.65 71.66 19.24 71.72L19.23 71.73ZM20.59 71.88C22.34 72.06 24.16 72.23 26.03 72.39C27.15 74.09 28.34 75.78 29.59 77.47C28.73 78.71 27.91 79.94 27.13 81.15C23.93 80.43 20.96 79.62 18.25 78.74C18.2 78.39 18.16 78.03 18.11 77.68C18.84 75.77 19.66 73.83 20.59 71.88ZM27.8 82.78C29.21 83.08 30.66 83.37 32.15 83.64C32.46 85.72 32.82 87.76 33.23 89.75C32.02 91.18 30.85 92.59 29.74 93.96C27.69 93.23 25.74 92.44 23.87 91.6C23.66 91.32 23.44 91.05 23.23 90.77C24.52 88.23 26.06 85.55 27.81 82.78H27.8ZM28.88 95.03C28.51 95.49 28.15 95.95 27.79 96.4C27.01 95.52 26.25 94.62 25.51 93.71C26.61 94.16 27.72 94.61 28.87 95.02L28.88 95.03ZM30.23 95.5C31.77 96.03 33.36 96.53 34.99 97C35.45 98.63 35.96 100.22 36.49 101.76C35.82 102.3 35.18 102.8 34.57 103.28C33.55 102.36 32.55 101.41 31.56 100.43C30.57 99.45 29.64 98.45 28.71 97.43C29.19 96.81 29.7 96.16 30.23 95.5ZM39.39 109.05C39.47 109.21 39.54 109.38 39.62 109.54C39.24 109.72 38.88 109.89 38.51 110.06C36.12 109.21 33.82 108.26 31.6 107.21C32.5 106.55 33.47 105.82 34.51 105.02C36.11 106.44 37.74 107.79 39.4 109.06L39.39 109.05ZM38.01 102.24C39.37 101.14 40.78 99.98 42.23 98.76C44.22 99.17 46.26 99.53 48.34 99.84C48.61 101.33 48.9 102.78 49.2 104.19C46.43 105.94 43.76 107.47 41.22 108.76C40.93 108.55 40.65 108.32 40.37 108.11C39.53 106.24 38.74 104.29 38.02 102.25L38.01 102.24ZM42.58 111.37C42.32 111.29 42.07 111.22 41.81 111.14C41.72 110.97 41.64 110.8 41.56 110.63C41.9 110.87 42.24 111.13 42.58 111.37ZM51.63 114.81C51.45 114.87 51.28 114.93 51.1 114.99C50.85 114.86 50.61 114.73 50.36 114.59C50.78 114.67 51.2 114.74 51.62 114.81H51.63ZM50.81 104.85C52.02 104.07 53.25 103.25 54.49 102.39C56.18 103.64 57.87 104.82 59.57 105.94C59.73 107.82 59.9 109.64 60.08 111.39C58.13 112.32 56.19 113.14 54.28 113.87C53.93 113.82 53.57 113.78 53.22 113.73C52.34 111.03 51.53 108.05 50.81 104.86V104.85ZM54.3 115.22C56.37 115.5 58.47 115.71 60.6 115.84C60.76 117.1 60.94 118.29 61.12 119.44C58.81 118.62 56.5 117.66 54.22 116.57C54.08 116.19 53.93 115.8 53.8 115.41C53.97 115.35 54.14 115.29 54.31 115.22H54.3ZM60.99 106.85C62.2 107.62 63.41 108.36 64.62 109.06C63.53 109.66 62.45 110.22 61.37 110.76C61.24 109.52 61.11 108.22 60.99 106.86V106.85ZM60.84 105.2C60.73 103.85 60.62 102.44 60.51 100.98C62.3 101.06 64.11 101.11 65.93 101.11C67.75 101.11 69.56 101.06 71.35 100.98C71.25 102.44 71.14 103.85 71.02 105.2C69.32 106.31 67.62 107.35 65.92 108.31C64.22 107.34 62.52 106.3 60.82 105.2H60.84ZM70.89 106.85C70.77 108.21 70.64 109.51 70.51 110.75C69.43 110.21 68.35 109.65 67.26 109.05C68.47 108.35 69.68 107.61 70.89 106.84V106.85ZM71.28 115.83C73.41 115.7 75.51 115.49 77.58 115.21C77.75 115.27 77.92 115.34 78.09 115.4C77.95 115.8 77.81 116.18 77.66 116.56C75.37 117.65 73.07 118.6 70.76 119.43C70.94 118.28 71.11 117.09 71.28 115.83ZM77.6 113.86C75.69 113.13 73.75 112.31 71.8 111.38C71.98 109.63 72.15 107.8 72.31 105.93C74.01 104.81 75.7 103.64 77.39 102.38C78.63 103.24 79.86 104.06 81.07 104.84C80.35 108.03 79.54 111.01 78.66 113.71C78.31 113.76 77.95 113.8 77.6 113.85V113.86ZM81.52 114.59C81.27 114.72 81.03 114.86 80.78 114.99C80.6 114.93 80.43 114.87 80.25 114.81C80.67 114.74 81.1 114.67 81.52 114.59ZM90.32 110.63C90.23 110.8 90.15 110.97 90.07 111.14C89.82 111.22 89.56 111.29 89.3 111.37C89.64 111.13 89.98 110.87 90.32 110.63ZM82.69 104.17C82.99 102.76 83.28 101.31 83.55 99.82C85.63 99.51 87.66 99.15 89.66 98.74C91.11 99.96 92.51 101.12 93.88 102.22C93.16 104.26 92.37 106.21 91.53 108.08C91.25 108.3 90.96 108.52 90.68 108.73C88.15 107.44 85.47 105.91 82.7 104.16L82.69 104.17ZM92.5 109.04C94.16 107.77 95.79 106.42 97.39 105C98.43 105.8 99.4 106.53 100.3 107.19C98.08 108.24 95.78 109.2 93.39 110.04C93.02 109.87 92.65 109.7 92.28 109.52C92.36 109.36 92.43 109.19 92.51 109.03L92.5 109.04ZM97.34 103.26C96.72 102.78 96.07 102.27 95.41 101.74C95.94 100.2 96.44 98.61 96.91 96.98C98.54 96.52 100.12 96.02 101.67 95.48C102.2 96.14 102.71 96.79 103.19 97.41C102.27 98.43 101.32 99.43 100.34 100.41C99.36 101.39 98.35 102.33 97.34 103.25V103.26ZM103.01 95.02C104.16 94.6 105.28 94.16 106.38 93.71C105.64 94.62 104.88 95.52 104.1 96.4C103.75 95.95 103.39 95.49 103.01 95.02ZM102.15 93.95C101.05 92.59 99.89 91.18 98.67 89.73C99.08 87.74 99.44 85.7 99.75 83.62C101.24 83.35 102.69 83.06 104.1 82.76C105.85 85.54 107.39 88.22 108.68 90.75C108.47 91.03 108.25 91.3 108.04 91.58C106.17 92.42 104.21 93.21 102.16 93.94L102.15 93.95ZM106.78 61.06C108.13 61.18 109.43 61.31 110.66 61.44C110.12 62.52 109.56 63.6 108.97 64.68C108.27 63.47 107.55 62.27 106.78 61.06ZM110.66 70.58C109.42 70.71 108.13 70.84 106.78 70.96C107.55 69.75 108.27 68.55 108.97 67.34C109.56 68.42 110.13 69.5 110.66 70.58ZM108.22 66.01C107.25 67.71 106.21 69.41 105.11 71.11C103.76 71.22 102.35 71.33 100.89 71.44C100.97 69.65 101.02 67.85 101.02 66.02C101.02 64.19 100.97 62.39 100.89 60.6C102.35 60.7 103.76 60.81 105.11 60.93C106.22 62.63 107.26 64.33 108.22 66.03V66.01ZM100.49 77.37C100.53 77.42 100.56 77.47 100.6 77.52C100.55 77.58 100.51 77.65 100.46 77.71C100.47 77.6 100.48 77.48 100.49 77.37ZM100.46 54.32C100.52 54.4 100.58 54.48 100.64 54.56C100.6 54.62 100.55 54.69 100.5 54.75C100.49 54.61 100.47 54.46 100.46 54.32ZM101.39 78.68C102.03 79.62 102.66 80.56 103.25 81.48C102.17 81.71 101.08 81.93 99.95 82.14C100.04 81.5 100.11 80.86 100.19 80.21C100.59 79.7 101 79.19 101.39 78.68ZM100.68 75.18C100.74 74.38 100.8 73.58 100.84 72.77C101.97 72.69 103.09 72.61 104.19 72.52C103.33 73.79 102.43 75.06 101.5 76.32C101.23 75.94 100.96 75.56 100.68 75.18ZM100.84 59.28C100.8 58.46 100.73 57.64 100.67 56.82C100.94 56.44 101.2 56.07 101.47 55.69C102.41 56.96 103.32 58.24 104.19 59.52C103.09 59.43 101.97 59.35 100.84 59.27V59.28ZM101.43 53.42C101.03 52.89 100.61 52.36 100.19 51.84C100.11 51.19 100.04 50.55 99.95 49.91C101.1 50.12 102.22 50.35 103.31 50.58C102.7 51.52 102.07 52.46 101.42 53.42H101.43ZM102.3 77.47C103.55 75.78 104.74 74.09 105.86 72.39C107.73 72.23 109.56 72.07 111.3 71.88C112.23 73.84 113.05 75.77 113.78 77.68C113.73 78.03 113.69 78.39 113.64 78.74C110.94 79.62 107.96 80.43 104.76 81.15C103.98 79.94 103.16 78.71 102.3 77.47ZM112.66 71.73C113.25 71.66 113.83 71.6 114.4 71.53C114.33 72.7 114.23 73.87 114.11 75.02C113.66 73.93 113.18 72.83 112.67 71.73H112.66ZM112.66 60.32C113.18 59.22 113.65 58.12 114.11 57.03C114.23 58.19 114.33 59.35 114.4 60.53C113.83 60.46 113.25 60.39 112.66 60.33V60.32ZM111.3 60.17C109.55 59.99 107.73 59.82 105.86 59.66C104.74 57.95 103.54 56.25 102.28 54.55C103.13 53.32 103.94 52.1 104.72 50.88C107.93 51.61 110.92 52.42 113.64 53.3C113.69 53.65 113.73 54.01 113.78 54.36C113.05 56.27 112.23 58.21 111.3 60.16V60.17ZM104.16 49.29C102.73 48.98 101.26 48.69 99.75 48.41C99.44 46.33 99.08 44.3 98.67 42.3C99.89 40.85 101.05 39.45 102.15 38.08C104.19 38.8 106.14 39.59 108.01 40.43C108.24 40.73 108.47 41.03 108.7 41.33C108.43 41.86 108.16 42.38 107.87 42.92C106.76 44.98 105.52 47.11 104.15 49.27L104.16 49.29ZM103.01 37.02C103.39 36.55 103.75 36.09 104.1 35.65C104.88 36.53 105.63 37.43 106.37 38.33C105.28 37.88 104.16 37.44 103.02 37.02H103.01ZM101.66 36.55C100.12 36.02 98.53 35.52 96.9 35.05C96.44 33.42 95.94 31.84 95.4 30.29C96.06 29.76 96.71 29.25 97.33 28.76C98.34 29.68 99.34 30.63 100.32 31.61C101.3 32.59 102.24 33.6 103.16 34.61C102.68 35.23 102.17 35.88 101.64 36.54L101.66 36.55ZM92.5 23C92.42 22.82 92.34 22.64 92.25 22.46C92.61 22.29 92.96 22.12 93.32 21.96C95.73 22.81 98.06 23.78 100.29 24.84C99.39 25.5 98.43 26.22 97.39 27.02C95.8 25.61 94.17 24.27 92.5 22.99V23ZM93.87 29.81C92.51 30.91 91.1 32.07 89.65 33.29C87.66 32.88 85.62 32.52 83.54 32.21C83.27 30.7 82.97 29.23 82.66 27.8C84.82 26.43 86.95 25.19 89.01 24.08C89.55 23.79 90.07 23.53 90.6 23.27C90.9 23.49 91.2 23.69 91.5 23.92C92.34 25.8 93.14 27.75 93.86 29.81H93.87ZM89.39 22.39C89.06 22.56 88.73 22.73 88.39 22.91C86.43 23.96 84.42 25.14 82.37 26.42C81.73 23.62 81.02 21.01 80.25 18.59C81.91 18.87 83.55 19.19 85.15 19.57C86.58 20.45 87.99 21.4 89.39 22.39ZM89.32 20.68C89.57 20.75 89.82 20.83 90.07 20.9C90.15 21.06 90.23 21.22 90.31 21.38C89.98 21.15 89.66 20.91 89.33 20.68H89.32ZM80.24 17.23C80.42 17.17 80.6 17.12 80.78 17.06C81.02 17.19 81.27 17.32 81.51 17.45C81.09 17.37 80.67 17.3 80.24 17.23ZM85.74 18.34C84.7 17.7 83.65 17.09 82.6 16.5C84.06 16.08 85.49 15.72 86.9 15.43C87.69 16.64 88.46 17.92 89.19 19.25C88.05 18.93 86.91 18.62 85.75 18.34H85.74ZM81.02 15.63C80.3 15.25 79.57 14.89 78.83 14.53C78.06 12.53 77.25 10.72 76.39 9.10001C78.16 8.93001 79.9 8.83002 81.61 8.83002C83.19 10.43 84.7 12.24 86.12 14.28C84.45 14.64 82.74 15.1 81.01 15.64L81.02 15.63ZM76.95 13.64C74.83 12.68 72.68 11.82 70.51 11.07C70.45 10.72 70.39 10.35 70.33 10.01C71.56 9.76001 72.79 9.54 74.03 9.37C74.33 9.33 74.62 9.30001 74.92 9.26001C75.63 10.57 76.3 12.04 76.96 13.64H76.95ZM61.37 11.07C59.2 11.82 57.05 12.67 54.93 13.64C55.58 12.06 56.25 10.59 56.95 9.28C58.47 9.47 60.01 9.73001 61.55 10.04C61.49 10.37 61.43 10.72 61.37 11.07ZM53.04 14.53C52.31 14.89 51.58 15.25 50.85 15.63C49.12 15.09 47.41 14.63 45.74 14.27C47.15 12.24 48.65 10.43 50.22 8.85001C51.95 8.85001 53.69 8.96 55.45 9.13C54.6 10.74 53.79 12.55 53.03 14.53H53.04ZM44.4 14.01C42.17 13.59 40 13.33 37.92 13.24C39.39 11.86 40.91 10.58 42.49 9.41C44.44 9.11 46.43 8.93 48.45 8.87C47.03 10.41 45.68 12.12 44.4 14.01ZM43.62 15.17C42.69 16.61 41.81 18.15 40.96 19.77C40.18 20.01 39.41 20.27 38.65 20.53C36.68 19.65 34.83 18.94 33.09 18.4C34.22 17.02 35.4 15.71 36.63 14.48C38.85 14.49 41.2 14.74 43.62 15.17ZM36.79 21.19C34.57 22.02 32.43 22.95 30.37 23.95C30.06 23.73 29.76 23.52 29.47 23.32C30.34 22.01 31.25 20.75 32.2 19.53C33.64 19.96 35.18 20.51 36.8 21.18L36.79 21.19ZM21.11 36.87C20.43 35.25 19.88 33.71 19.45 32.26C20.67 31.31 21.93 30.4 23.25 29.52C23.45 29.81 23.67 30.12 23.88 30.42C22.87 32.49 21.94 34.64 21.11 36.86V36.87ZM20.82 41.88C20.98 41.8 21.15 41.71 21.32 41.63C21.07 41.98 20.82 42.33 20.58 42.68C20.66 42.41 20.74 42.14 20.82 41.88ZM22.31 42.55C22.48 42.88 22.65 43.21 22.83 43.55C23.88 45.51 25.06 47.52 26.34 49.57C23.54 50.21 20.93 50.92 18.51 51.69C18.79 50.03 19.11 48.38 19.49 46.77C20.37 45.35 21.32 43.94 22.31 42.55ZM18.25 46.25C17.61 47.28 17.01 48.33 16.43 49.37C16 47.9 15.64 46.46 15.35 45.04C16.56 44.25 17.84 43.48 19.18 42.75C18.85 43.9 18.54 45.07 18.26 46.25H18.25ZM16.06 69.96C14.6 69.77 13.24 69.57 12 69.37C11.63 68.27 11.3 67.16 11 66.05C11.31 64.91 11.66 63.77 12.04 62.64C13.27 62.44 14.62 62.24 16.07 62.05C16.01 63.36 15.97 64.68 15.97 66.01C15.97 67.34 16.01 68.66 16.07 69.97L16.06 69.96ZM16.14 71.34C16.27 73.46 16.48 75.56 16.75 77.62C16.68 77.8 16.62 77.97 16.55 78.15C16.14 78.01 15.75 77.86 15.35 77.71C14.27 75.44 13.33 73.14 12.5 70.82C13.65 71 14.86 71.18 16.13 71.34H16.14ZM16.14 60.66C14.88 60.82 13.69 61 12.54 61.18C13.36 58.87 14.32 56.56 15.41 54.28C15.79 54.14 16.17 54 16.56 53.86C16.62 54.04 16.69 54.21 16.76 54.39C16.48 56.45 16.28 58.55 16.15 60.67L16.14 60.66ZM13.62 54.97C12.65 57.11 11.8 59.26 11.05 61.42C10.68 61.48 10.3 61.55 9.95001 61.61C9.70001 60.38 9.48 59.15 9.31 57.91C9.27 57.61 9.24002 57.31 9.21002 57.01C10.53 56.3 12.02 55.62 13.62 54.96V54.97ZM10.36 63.54C10.31 63.34 10.28 63.14 10.23 62.94C10.34 62.92 10.44 62.9 10.55 62.88C10.48 63.1 10.42 63.32 10.35 63.54H10.36ZM10.52 69.11C10.43 69.09 10.34 69.08 10.25 69.06C10.29 68.9 10.32 68.73 10.35 68.57C10.41 68.75 10.46 68.93 10.52 69.11ZM9.97003 70.39C10.3 70.45 10.66 70.51 11.01 70.57C11.76 72.74 12.61 74.89 13.58 77.01C12 76.36 10.53 75.69 9.23004 74.99C9.42004 73.46 9.67004 71.93 9.98004 70.39H9.97003ZM16.43 82.66C17.02 83.72 17.63 84.77 18.27 85.8C18.55 86.96 18.86 88.11 19.18 89.25C17.84 88.52 16.56 87.75 15.35 86.96C15.64 85.55 16 84.12 16.42 82.66H16.43ZM18.52 80.31C20.93 81.07 23.52 81.78 26.3 82.42C24.78 84.84 23.45 87.18 22.29 89.42C21.32 88.06 20.39 86.67 19.52 85.27C19.14 83.64 18.81 81.98 18.53 80.3L18.52 80.31ZM21.31 90.36C21.15 90.28 20.99 90.2 20.83 90.12C20.75 89.87 20.68 89.62 20.61 89.37C20.84 89.7 21.08 90.03 21.31 90.36ZM21.15 95.2C21.98 97.4 22.9 99.52 23.9 101.58C23.69 101.88 23.47 102.18 23.27 102.48C21.96 101.61 20.7 100.7 19.49 99.76C19.92 98.33 20.49 96.8 21.16 95.21L21.15 95.2ZM30.38 108.05C32.43 109.05 34.55 109.97 36.75 110.79C35.16 111.46 33.63 112.03 32.2 112.46C31.26 111.25 30.35 109.99 29.48 108.68C29.78 108.47 30.07 108.27 30.38 108.05ZM38.72 111.5C39.47 111.76 40.21 112.01 40.97 112.24C41.82 113.86 42.71 115.41 43.64 116.86C41.21 117.29 38.87 117.51 36.64 117.52C35.42 116.29 34.25 115 33.12 113.63C34.88 113.09 36.75 112.37 38.71 111.49L38.72 111.5ZM44.41 117.99C45.69 119.87 47.04 121.59 48.46 123.13C46.44 123.07 44.46 122.9 42.51 122.6C40.92 121.43 39.39 120.15 37.92 118.76C40.01 118.67 42.17 118.42 44.41 118V117.99ZM45.76 117.74C47.44 117.38 49.17 116.9 50.91 116.35C51.62 116.72 52.33 117.09 53.04 117.43C53.81 119.44 54.63 121.26 55.49 122.89C53.73 123.06 51.98 123.15 50.25 123.16C48.68 121.57 47.18 119.76 45.77 117.74H45.76ZM54.93 118.33C57.07 119.3 59.22 120.16 61.38 120.9C61.44 121.26 61.5 121.63 61.57 121.98C60.03 122.29 58.5 122.54 56.97 122.73C56.26 121.41 55.58 119.93 54.93 118.33ZM70.53 120.9C72.69 120.16 74.84 119.3 76.98 118.33C76.33 119.93 75.65 121.41 74.94 122.73C73.41 122.54 71.88 122.29 70.34 121.98C70.4 121.63 70.47 121.26 70.53 120.9ZM78.87 117.44C79.58 117.09 80.29 116.73 81 116.36C82.74 116.9 84.47 117.38 86.15 117.75C84.74 119.78 83.24 121.58 81.67 123.17C79.94 123.17 78.19 123.08 76.43 122.9C77.29 121.27 78.11 119.44 78.88 117.44H78.87ZM87.5 118C89.74 118.42 91.9 118.68 93.99 118.76C92.52 120.15 90.99 121.43 89.4 122.6C87.46 122.9 85.47 123.07 83.45 123.13C84.86 121.59 86.22 119.88 87.5 117.99V118ZM88.26 116.87C89.19 115.42 90.08 113.87 90.93 112.25C91.69 112.01 92.44 111.76 93.18 111.51C95.14 112.38 97.01 113.1 98.77 113.65C97.65 115.02 96.47 116.32 95.25 117.54C93.02 117.53 90.68 117.31 88.25 116.88L88.26 116.87ZM95.16 110.8C97.36 109.97 99.48 109.06 101.53 108.06C101.85 108.28 102.14 108.48 102.43 108.69C101.56 110 100.65 111.26 99.71 112.47C98.28 112.04 96.75 111.47 95.16 110.8ZM110.76 95.21C111.43 96.8 111.99 98.33 112.43 99.76C111.22 100.7 109.96 101.61 108.65 102.48C108.45 102.19 108.24 101.89 108.02 101.58C109.02 99.53 109.94 97.41 110.76 95.21ZM111.07 90.13C110.91 90.21 110.75 90.29 110.59 90.37C110.82 90.04 111.06 89.72 111.29 89.38C111.22 89.63 111.14 89.88 111.07 90.13ZM109.62 89.43C108.46 87.18 107.12 84.85 105.61 82.43C108.39 81.79 110.98 81.08 113.39 80.32C113.1 82 112.78 83.66 112.4 85.29C111.53 86.69 110.6 88.07 109.63 89.44L109.62 89.43ZM113.63 85.81C114.27 84.77 114.88 83.72 115.47 82.66C115.89 84.12 116.25 85.55 116.54 86.96C115.33 87.75 114.05 88.52 112.71 89.25C113.04 88.12 113.34 86.97 113.62 85.8L113.63 85.81ZM115.84 69.96C115.9 68.65 115.94 67.33 115.94 66C115.94 64.67 115.9 63.35 115.84 62.04C117.28 62.23 118.63 62.43 119.87 62.63C120.25 63.77 120.59 64.91 120.91 66.04C120.6 67.15 120.27 68.26 119.91 69.36C118.67 69.56 117.31 69.76 115.85 69.95L115.84 69.96ZM119.39 70.82C118.56 73.14 117.62 75.44 116.54 77.71C116.15 77.86 115.75 78 115.34 78.15C115.28 77.97 115.21 77.8 115.14 77.62C115.42 75.56 115.62 73.47 115.75 71.34C117.02 71.18 118.22 71 119.38 70.82H119.39ZM115.76 60.66C115.63 58.54 115.42 56.44 115.15 54.38C115.22 54.2 115.28 54.03 115.35 53.85C115.74 53.99 116.12 54.13 116.5 54.27C117.59 56.56 118.54 58.86 119.37 61.17C118.22 60.99 117.03 60.82 115.77 60.65L115.76 60.66ZM118.33 77.01C119.29 74.89 120.15 72.74 120.9 70.57C121.25 70.51 121.6 70.45 121.94 70.39C122.25 71.93 122.5 73.46 122.69 74.99C121.38 75.69 119.92 76.37 118.34 77.01H118.33ZM121.55 63.54C121.48 63.32 121.42 63.1 121.35 62.88C121.46 62.9 121.56 62.92 121.67 62.94C121.63 63.14 121.59 63.34 121.54 63.54H121.55ZM121.66 69.07C121.57 69.09 121.48 69.1 121.39 69.12C121.45 68.94 121.5 68.76 121.56 68.58C121.6 68.74 121.63 68.91 121.66 69.07ZM120.86 61.43C120.12 59.27 119.26 57.12 118.29 54.98C119.9 55.64 121.38 56.32 122.7 57.03C122.66 57.33 122.64 57.63 122.6 57.93C122.43 59.16 122.2 60.4 121.96 61.63C121.61 61.56 121.23 61.5 120.86 61.44V61.43ZM115.47 49.38C114.89 48.33 114.29 47.29 113.65 46.25C113.37 45.07 113.06 43.91 112.73 42.75C114.07 43.48 115.35 44.25 116.56 45.04C116.27 46.46 115.9 47.9 115.48 49.37L115.47 49.38ZM113.39 51.7C110.97 50.93 108.36 50.22 105.56 49.58C106.84 47.53 108.02 45.52 109.07 43.56C109.25 43.22 109.41 42.89 109.59 42.56C110.58 43.95 111.53 45.36 112.41 46.78C112.79 48.39 113.11 50.04 113.39 51.7ZM110.58 41.64C110.75 41.72 110.91 41.8 111.08 41.89C111.16 42.16 111.24 42.42 111.32 42.69C111.08 42.34 110.83 41.99 110.58 41.64ZM110.79 36.88C109.96 34.66 109.03 32.51 108.02 30.44C108.24 30.13 108.45 29.83 108.65 29.54C109.96 30.41 111.23 31.32 112.44 32.27C112.01 33.71 111.46 35.25 110.78 36.88H110.79ZM101.54 23.96C99.47 22.95 97.33 22.03 95.12 21.2C96.74 20.52 98.28 19.97 99.72 19.55C100.67 20.76 101.58 22.02 102.45 23.34C102.16 23.54 101.86 23.75 101.55 23.97L101.54 23.96ZM93.26 20.53C92.5 20.27 91.73 20.01 90.95 19.77C90.1 18.16 89.22 16.62 88.29 15.17C90.71 14.74 93.05 14.49 95.28 14.48C96.51 15.71 97.69 17.02 98.82 18.4C97.08 18.94 95.23 19.65 93.26 20.53ZM87.51 14.01C86.22 12.12 84.86 10.39 83.44 8.85001C85.47 8.91001 87.45 9.09 89.37 9.38C90.97 10.55 92.51 11.85 93.99 13.24C91.91 13.33 89.74 13.58 87.51 14.01ZM82.11 7.48001C80.12 5.54001 78.03 3.94001 75.84 2.73001C79.74 3.80001 83.47 5.50001 86.97 7.73001C85.38 7.57001 83.76 7.48001 82.11 7.48001ZM80.28 7.51001C78.78 7.55001 77.27 7.66002 75.73 7.83002C74.32 5.40002 72.81 3.50002 71.22 2.18002C74.41 3.14002 77.45 4.96001 80.28 7.51001ZM74.22 8C74.1 8.02 73.98 8.02001 73.86 8.04001C72.6 8.22001 71.34 8.44001 70.09 8.70001C69.46 5.63001 68.75 3.23 67.93 1.75C70.15 2.56 72.28 4.73 74.22 8ZM65.96 1.38C66.76 1.38 67.78 3.91 68.77 8.97C67.83 9.18 66.89 9.41 65.96 9.66C65.02 9.41 64.09 9.18 63.15 8.97C64.14 3.91 65.16 1.38 65.96 1.38ZM63.99 1.74002C63.18 3.22002 62.46 5.62 61.83 8.69C60.57 8.44 59.32 8.21 58.06 8.03C57.94 8.01 57.82 8.00002 57.7 7.99002C59.65 4.72002 61.77 2.55002 63.99 1.74002ZM56.19 7.82001C54.65 7.65001 53.14 7.55 51.64 7.5C54.47 4.95 57.51 3.12 60.7 2.16C59.11 3.48 57.6 5.39 56.19 7.81V7.82001ZM49.81 7.47C48.16 7.47 46.54 7.57 44.95 7.72C48.45 5.48 52.18 3.79 56.08 2.72C53.89 3.93 51.8 5.53 49.81 7.47ZM37.55 7.92001C37.74 7.83001 37.94 7.73 38.13 7.63C38.73 7.34 39.34 7.07002 39.96 6.80002C40.38 6.61002 40.81 6.42 41.23 6.25C41.62 6.09 42.02 5.94 42.41 5.78C43.07 5.52 43.73 5.27 44.4 5.03C44.56 4.97 44.73 4.92002 44.89 4.86002C46.82 4.20002 48.78 3.62999 50.76 3.14999C47.72 4.42999 44.81 6.08001 42.05 8.07001C38.65 8.61001 35.42 9.51002 32.37 10.74C34.05 9.72002 35.78 8.76999 37.55 7.89999V7.92001ZM39.68 9.92001C38.43 10.95 37.21 12.03 36.03 13.2C33.23 13.23 30.6 13.58 28.19 14.27C31.73 12.26 35.6 10.81 39.68 9.92001ZM34.75 14.52C33.71 15.62 32.7 16.78 31.73 17.98C28.99 17.24 26.59 16.97 24.55 17.15C27.49 15.57 30.93 14.71 34.75 14.51V14.52ZM25.79 18.44C27.27 18.44 28.95 18.69 30.81 19.15C29.97 20.25 29.16 21.4 28.38 22.57C25.38 20.56 23.4 19.57 22.08 19.14C23.12 18.69 24.35 18.44 25.8 18.44H25.79ZM20.25 20.31C20.25 20.31 20.34 20.23 20.61 20.23C21.29 20.23 23.11 20.69 27.63 23.7C27.11 24.51 26.61 25.34 26.12 26.19C25.28 26.68 24.45 27.18 23.64 27.69C20.75 23.4 19.68 20.88 20.25 20.31ZM19.12 21.98C19.6 23.61 20.8 25.82 22.53 28.43C21.35 29.22 20.2 30.03 19.09 30.87C18.16 27.12 18.16 24.09 19.12 21.98ZM17.1 24.56C16.91 26.61 17.18 29.03 17.92 31.79C16.71 32.76 15.55 33.78 14.44 34.82C14.63 30.98 15.5 27.51 17.09 24.56H17.1ZM18.33 33.16C18.87 34.9 19.58 36.75 20.46 38.71C20.2 39.47 19.94 40.24 19.7 41.02C18.08 41.87 16.53 42.76 15.08 43.69C14.65 41.26 14.43 38.92 14.42 36.69C15.65 35.46 16.96 34.28 18.34 33.15L18.33 33.16ZM13.14 36.09C11.97 37.28 10.87 38.51 9.83002 39.77C10.74 35.62 12.2 31.74 14.22 28.22C13.52 30.64 13.16 33.28 13.14 36.08V36.09ZM4.79999 45C4.86999 44.81 4.92999 44.62 4.98999 44.43C5.21999 43.79 5.47002 43.15 5.71002 42.51C5.87002 42.09 6.03001 41.68 6.20001 41.27C6.37001 40.86 6.55004 40.46 6.73004 40.06C7.01004 39.43 7.29002 38.8 7.58002 38.17C7.66002 37.99 7.75003 37.82 7.84003 37.65C8.71003 35.87 9.66 34.12 10.69 32.44C9.46 35.48 8.56002 38.72 8.02002 42.12C6.03002 44.88 4.38004 47.79 3.10004 50.83C3.57004 48.87 4.14004 46.93 4.79004 45.01L4.79999 45ZM7.66003 45C7.50003 46.59 7.41003 48.21 7.41003 49.86C5.46003 51.85 3.87003 53.94 2.66003 56.13C3.73003 52.23 5.43003 48.5 7.66003 45ZM7.44 51.69C7.48 53.19 7.59001 54.71 7.76001 56.24C5.33001 57.65 3.42999 59.16 2.10999 60.75C3.06999 57.56 4.89001 54.52 7.45001 51.68L7.44 51.69ZM7.92999 57.75C7.94999 57.87 7.95003 57.99 7.97003 58.11C8.15003 59.37 8.37 60.63 8.63 61.88C5.56001 62.51 3.15999 63.22 1.67999 64.04C2.48999 61.82 4.65999 59.69 7.92999 57.75ZM1.31 66.01C1.31 65.21 3.84002 64.19 8.90002 63.2C9.11002 64.16 9.34999 65.12 9.60999 66.08C9.35999 67 9.13999 67.92 8.92999 68.84C3.84999 67.85 1.31 66.82 1.31 66.02V66.01ZM8.66003 70.14C8.38003 71.53 8.14002 72.91 7.96002 74.29C4.67002 72.34 2.48999 70.21 1.67999 67.98C3.16999 68.8 5.58004 69.51 8.67004 70.14H8.66003ZM7.78003 75.79C7.61003 77.33 7.51003 78.85 7.47003 80.37C4.90003 77.53 3.06004 74.47 2.10004 71.26C3.43004 72.86 5.34004 74.38 7.79004 75.79H7.78003ZM7.44 82.19C7.44 83.85 7.54001 85.48 7.70001 87.09C5.44001 83.57 3.73002 79.81 2.65002 75.88C3.87002 78.08 5.47 80.19 7.44 82.19ZM7.84003 94.38C7.75003 94.2 7.66001 94.02 7.57001 93.84C7.27001 93.22 7.00003 92.6 6.72003 91.97C6.54003 91.56 6.36 91.16 6.19 90.74C6.02 90.33 5.87001 89.92 5.70001 89.51C5.45001 88.87 5.20003 88.23 4.97003 87.58C4.90003 87.4 4.85003 87.21 4.78003 87.02C4.12003 85.1 3.56003 83.16 3.09003 81.2C4.38003 84.26 6.05 87.2 8.06 89.97C8.6 93.35 9.5 96.61 10.75 99.69C9.7 97.97 8.73002 96.2 7.83002 94.38H7.84003ZM9.85004 92.27C10.88 93.52 11.97 94.74 13.13 95.92C13.16 98.72 13.51 101.35 14.2 103.76C12.19 100.22 10.74 96.35 9.85004 92.27ZM17.08 107.43C15.49 104.48 14.63 101.02 14.44 97.19C15.54 98.23 16.69 99.24 17.9 100.21C17.17 102.94 16.89 105.37 17.08 107.44V107.43ZM14.4 95.32C14.41 93.09 14.63 90.75 15.06 88.32C16.51 89.25 18.06 90.14 19.68 90.99C19.92 91.75 20.17 92.5 20.42 93.24C19.54 95.2 18.83 97.07 18.29 98.83C16.92 97.71 15.62 96.53 14.39 95.31L14.4 95.32ZM19.1 110.06C18.1 107.91 18.14 104.86 19.08 101.16C20.18 102 21.33 102.81 22.51 103.59C20.78 106.22 19.58 108.43 19.1 110.06ZM20.23 111.71C19.66 111.14 20.74 108.62 23.62 104.33C24.43 104.85 25.26 105.35 26.1 105.83C26.59 106.68 27.09 107.51 27.61 108.32C21.25 112.56 20.23 111.72 20.22 111.71H20.23ZM28.36 109.45C29.14 110.62 29.95 111.77 30.79 112.87C27.16 113.79 24.16 113.84 22.02 112.9C23.34 112.48 25.33 111.48 28.37 109.45H28.36ZM25.81 114.93C27.57 114.93 29.56 114.63 31.73 114.05C32.7 115.25 33.71 116.41 34.75 117.51C30.92 117.32 27.46 116.45 24.5 114.87C24.92 114.91 25.36 114.94 25.81 114.94V114.93ZM36.01 118.82C37.19 119.98 38.41 121.07 39.66 122.1C35.56 121.2 31.68 119.75 28.12 117.72C30.55 118.42 33.19 118.8 36.01 118.82ZM32.23 121.18C35.31 122.43 38.57 123.33 41.95 123.87C44.74 125.89 47.7 127.57 50.78 128.87C44.14 127.27 37.89 124.66 32.22 121.18H32.23ZM44.85 124.24C46.46 124.4 48.09 124.49 49.75 124.5C51.75 126.46 53.86 128.07 56.06 129.29C52.13 128.21 48.37 126.5 44.85 124.24ZM51.56 124.46C53.08 124.42 54.61 124.33 56.15 124.16C57.56 126.6 59.08 128.51 60.68 129.84C57.47 128.87 54.41 127.03 51.56 124.46ZM57.65 123.97C59.03 123.79 60.41 123.55 61.8 123.27C62.43 126.36 63.15 128.77 63.97 130.26C61.74 129.44 59.61 127.26 57.65 123.96V123.97ZM65.93 130.63C65.13 130.63 64.11 128.09 63.11 123.02C64.05 122.81 64.99 122.57 65.93 122.32C66.87 122.57 67.81 122.82 68.75 123.03C67.76 128.1 66.74 130.64 65.93 130.64V130.63ZM67.9 130.27C68.72 128.78 69.44 126.36 70.07 123.28C71.46 123.56 72.84 123.79 74.22 123.98C72.27 127.27 70.13 129.46 67.9 130.28V130.27ZM71.19 129.84C72.79 128.52 74.31 126.6 75.72 124.16C77.26 124.33 78.79 124.42 80.31 124.46C77.46 127.04 74.4 128.88 71.19 129.84ZM82.12 124.5C83.77 124.5 85.41 124.4 87.02 124.24C83.5 126.5 79.74 128.21 75.81 129.29C78.01 128.07 80.12 126.46 82.12 124.5ZM81.08 128.87C84.16 127.57 87.12 125.89 89.91 123.87C93.3 123.33 96.56 122.43 99.64 121.18C93.97 124.66 87.72 127.27 81.08 128.87ZM92.21 122.09C93.46 121.07 94.68 119.98 95.86 118.82C98.68 118.79 101.32 118.42 103.75 117.72C100.2 119.74 96.32 121.2 92.22 122.09H92.21ZM97.12 117.5C98.16 116.4 99.17 115.25 100.14 114.04C102.31 114.62 104.3 114.92 106.06 114.92C106.51 114.92 106.95 114.89 107.37 114.85C104.42 116.44 100.95 117.3 97.12 117.49V117.5ZM101.08 112.85C101.92 111.75 102.73 110.61 103.51 109.43C106.55 111.46 108.54 112.46 109.86 112.88C107.71 113.82 104.72 113.77 101.09 112.85H101.08ZM111.63 111.7C111.06 112.27 108.54 111.19 104.25 108.3C104.77 107.49 105.27 106.66 105.75 105.82C106.59 105.33 107.42 104.83 108.23 104.32C111.12 108.61 112.19 111.13 111.62 111.7H111.63ZM112.82 109.92C112.4 108.6 111.4 106.61 109.37 103.58C110.54 102.8 111.69 102 112.78 101.16C113.7 104.79 113.75 107.78 112.81 109.93L112.82 109.92ZM114.79 107.43C114.98 105.36 114.7 102.93 113.97 100.2C115.17 99.23 116.33 98.22 117.43 97.18C117.24 101.01 116.38 104.47 114.79 107.42V107.43ZM113.57 98.84C113.03 97.08 112.31 95.21 111.44 93.24C111.7 92.49 111.95 91.75 112.18 90.99C113.8 90.14 115.35 89.25 116.8 88.32C117.23 90.75 117.45 93.09 117.46 95.32C116.23 96.54 114.93 97.71 113.56 98.84H113.57ZM118.74 95.93C119.9 94.75 120.99 93.53 122.02 92.28C121.13 96.37 119.68 100.23 117.67 103.77C118.37 101.36 118.72 98.73 118.74 95.93ZM127.07 87.05C127.01 87.23 126.95 87.4 126.89 87.58C126.66 88.24 126.41 88.89 126.15 89.54C125.99 89.94 125.84 90.35 125.67 90.75C125.5 91.17 125.31 91.58 125.13 92C124.86 92.62 124.58 93.24 124.29 93.85C124.2 94.04 124.11 94.22 124.02 94.41C123.13 96.23 122.16 97.99 121.11 99.71C122.36 96.63 123.26 93.38 123.8 89.99C125.81 87.22 127.48 84.28 128.77 81.22C128.3 83.19 127.73 85.14 127.07 87.06V87.05ZM124.17 87.09C124.33 85.48 124.42 83.84 124.43 82.19C126.39 80.19 128 78.08 129.22 75.88C128.14 79.81 126.43 83.56 124.17 87.09ZM124.4 80.37C124.36 78.86 124.25 77.33 124.09 75.79C126.53 74.38 128.45 72.86 129.78 71.26C128.82 74.47 126.98 77.53 124.41 80.37H124.4ZM123.92 74.28C123.74 72.9 123.5 71.52 123.22 70.13C126.3 69.5 128.72 68.78 130.21 67.97C129.4 70.2 127.21 72.33 123.93 74.28H123.92ZM130.57 66C130.57 66.8 128.03 67.82 122.95 68.82C122.75 67.9 122.52 66.98 122.27 66.06C122.53 65.1 122.76 64.14 122.98 63.18C128.04 64.17 130.57 65.19 130.57 65.99V66ZM123.26 61.88C123.51 60.62 123.74 59.37 123.92 58.11C123.94 57.99 123.95 57.87 123.96 57.75C127.23 59.7 129.4 61.82 130.21 64.04C128.73 63.23 126.32 62.51 123.26 61.88ZM124.13 56.24C124.3 54.7 124.4 53.19 124.45 51.69C127 54.52 128.83 57.56 129.79 60.76C128.47 59.17 126.56 57.66 124.14 56.25L124.13 56.24ZM124.48 49.86C124.48 48.21 124.38 46.59 124.23 45C126.47 48.5 128.16 52.23 129.23 56.13C128.02 53.94 126.42 51.85 124.48 49.86ZM124.04 37.63C124.13 37.81 124.22 37.99 124.31 38.17C124.6 38.78 124.88 39.41 125.15 40.03C125.33 40.44 125.51 40.85 125.69 41.26C125.86 41.66 126.01 42.07 126.17 42.48C126.42 43.13 126.67 43.77 126.9 44.42C126.96 44.6 127.02 44.78 127.08 44.96C127.74 46.88 128.31 48.83 128.78 50.8C127.5 47.76 125.85 44.85 123.86 42.09C123.32 38.69 122.43 35.46 121.19 32.41C122.22 34.09 123.17 35.83 124.04 37.61V37.63ZM122.06 39.77C121.03 38.5 119.93 37.27 118.75 36.09C118.72 33.28 118.37 30.64 117.67 28.22C119.68 31.74 121.15 35.62 122.06 39.77ZM114.79 24.56C116.38 27.52 117.25 30.99 117.44 34.82C116.33 33.77 115.17 32.76 113.96 31.79C114.7 29.03 114.98 26.61 114.78 24.56H114.79ZM117.48 36.69C117.47 38.92 117.25 41.26 116.82 43.69C115.37 42.76 113.82 41.87 112.2 41.02C111.96 40.24 111.7 39.47 111.44 38.71C112.32 36.75 113.03 34.89 113.57 33.16C114.95 34.29 116.25 35.47 117.49 36.7L117.48 36.69ZM112.83 22.11C113.74 24.22 113.72 27.2 112.81 30.87C111.71 30.03 110.56 29.22 109.39 28.44C111.41 25.42 112.41 23.43 112.83 22.11ZM111.65 20.31C112.22 20.88 111.14 23.4 108.26 27.69C107.45 27.17 106.62 26.67 105.78 26.19C105.29 25.35 104.79 24.52 104.28 23.71C107.83 21.32 110.18 20.17 111.2 20.17C111.41 20.17 111.57 20.22 111.66 20.32L111.65 20.31ZM103.52 22.57C102.74 21.39 101.93 20.25 101.09 19.15C102.94 18.69 104.63 18.44 106.11 18.44C107.59 18.44 108.78 18.69 109.82 19.14C108.5 19.57 106.52 20.56 103.52 22.57ZM100.17 17.99C99.2 16.78 98.19 15.63 97.15 14.53C100.96 14.72 104.41 15.59 107.35 17.17C105.31 16.99 102.91 17.26 100.17 18V17.99ZM95.87 13.2C94.68 12.02 93.45 10.92 92.18 9.89001C96.35 10.8 100.24 12.27 103.77 14.29C101.34 13.58 98.69 13.22 95.87 13.2ZM89.85 8.09C87.09 6.1 84.18 4.45001 81.14 3.17001C83.12 3.64001 85.08 4.22001 87.01 4.88C87.17 4.94 87.34 4.99002 87.5 5.05002C88.17 5.28002 88.83 5.54002 89.49 5.80002C89.88 5.95002 90.28 6.10001 90.67 6.26001C91.1 6.44001 91.52 6.63 91.94 6.81C92.55 7.08 93.16 7.35001 93.77 7.64001C93.96 7.73001 94.16 7.83002 94.35 7.93002C96.12 8.80002 97.85 9.74001 99.52 10.76C96.48 9.53001 93.24 8.63 89.84 8.09H89.85Z" fill="#64F4AC" fill-opacity="0.3"/>
</svg>
