<svg width="32" height="36" viewBox="0 0 32 36" fill="none" xmlns="http://www.w3.org/2000/svg">
<path d="M25.505 17.7994C25.505 16.45 24.5049 15.3561 23.2711 15.3561C23.1917 15.3561 23.1134 15.3607 23.0363 15.3696L26.1046 5.47168H13.0654L16.1295 15.361C16.0845 15.358 16.0393 15.3561 15.9937 15.3561C14.76 15.3561 13.7598 16.45 13.7598 17.7994C13.7598 18.8902 14.4133 19.8136 15.3154 20.1278C14.839 21.0304 14.2395 21.8434 13.5588 22.5457C12.6333 23.5007 11.5741 24.2248 10.4285 24.671C9.06455 23.9046 8.42042 22.2003 9.00164 20.7058C9.06722 20.5371 9.13428 20.3661 9.19827 20.1957C10.1865 19.9435 10.9227 18.9746 10.9227 17.8169C10.9227 16.4675 9.92261 15.3736 8.6888 15.3736C7.45504 15.3736 6.45486 16.4675 6.45486 17.8169C6.45486 18.6445 6.83132 19.3753 7.40671 19.8174C6.8538 21.1943 6.04103 22.6353 5.78782 24.3055C5.48436 26.3071 5.78683 28.4317 7.3696 29.6316C11.0558 32.4259 15.057 27.8993 19.2758 26.7614C20.8048 26.349 22.4831 26.4155 23.8302 25.5621C24.8418 24.9213 25.5087 23.8593 25.6979 22.667C25.8849 21.4892 25.6123 20.3165 24.9854 19.3656C25.3097 18.9414 25.505 18.3955 25.505 17.7994Z" fill="#99425B"/>
<path d="M25.1604 22.5649C24.9961 23.6001 24.4116 24.5042 23.5567 25.0458C22.7599 25.5506 21.805 25.7013 20.794 25.8607C20.2524 25.9461 19.6923 26.0345 19.1452 26.182C17.6986 26.5722 16.2974 27.3335 14.9423 28.0696C12.2306 29.5429 9.88866 30.815 7.68042 29.1411C6.06289 27.9149 6.13758 25.6463 6.32603 24.4031C6.50068 23.2513 6.97283 22.1906 7.42944 21.1647C7.50834 20.9874 7.58565 20.8133 7.66088 20.6407C7.8872 20.7396 8.12791 20.8071 8.37883 20.8378C7.91404 22.5155 8.64497 24.3398 10.1792 25.2018L10.3891 25.3198L10.6115 25.2332C11.8244 24.7608 12.942 24.0027 13.9333 22.9797C14.574 22.3185 15.1249 21.5871 15.5777 20.8054C15.7135 20.8278 15.8523 20.8396 15.9937 20.8396C17.4018 20.8396 18.5678 19.6882 18.7482 18.2012C19.3246 18.1781 19.9368 18.1779 20.5165 18.201C20.6968 19.6881 21.8629 20.8396 23.2711 20.8396C23.8598 20.8396 24.406 20.6378 24.8558 20.2949C25.1682 20.9943 25.2848 21.7811 25.1604 22.5649ZM8.68878 15.9704C9.61979 15.9704 10.3771 16.7988 10.3771 17.817C10.3771 18.1828 10.279 18.5238 10.1105 18.811C9.82984 19.2897 9.35294 19.6179 8.80478 19.6588C8.76642 19.6617 8.72779 19.6636 8.68878 19.6636C8.48135 19.6636 8.28259 19.6222 8.09883 19.5471C7.72712 19.3949 7.41739 19.1032 7.22255 18.7307C7.08152 18.4611 7.00044 18.1493 7.00044 17.817C7.00044 16.7988 7.75784 15.9704 8.68878 15.9704ZM14.3054 17.7995C14.3054 16.8743 14.9306 16.1061 15.7431 15.9733C15.8249 15.9599 15.9086 15.9528 15.9937 15.9528C16.5349 15.9528 17.0168 16.2333 17.3259 16.6679C17.4027 16.7758 17.4693 16.893 17.5229 17.018C17.6248 17.2555 17.682 17.5202 17.682 17.7995C17.682 17.9471 17.6657 18.0906 17.6356 18.2283C17.4711 18.9817 16.8837 19.5575 16.164 19.6367C16.1081 19.6429 16.0512 19.6461 15.9937 19.6461C15.6566 19.6461 15.3426 19.5371 15.0787 19.3502C14.6138 19.0208 14.3054 18.449 14.3054 17.7995ZM21.3519 15.6036C20.9902 15.9821 20.7212 16.4657 20.5873 17.0096C19.9621 16.9839 19.2991 16.9839 18.6775 17.0096C18.5348 16.4299 18.2386 15.9186 17.8403 15.5302L19.5873 11.6664L21.3519 15.6036ZM13.8264 6.06849H25.3434L22.6233 14.8434C22.5054 14.8743 22.3904 14.9133 22.2787 14.9602L19.5916 8.96455L16.8968 14.9244C16.7803 14.8805 16.6603 14.8452 16.5374 14.8184L13.8264 6.06849ZM24.9594 17.7995C24.9594 17.9846 24.9341 18.1634 24.8875 18.3321C24.7767 18.7336 24.544 19.0776 24.2368 19.3129C23.9629 19.5226 23.63 19.6461 23.2711 19.6461C22.4915 19.6461 21.8339 19.065 21.6406 18.2782C21.6031 18.1254 21.5827 17.965 21.5827 17.7995C21.5827 17.547 21.6294 17.3064 21.7135 17.0871C21.7569 16.974 21.811 16.8672 21.8732 16.7669C22.177 16.2764 22.6898 15.9528 23.2711 15.9528C23.3244 15.9528 23.377 15.9559 23.429 15.9612C24.2862 16.0486 24.9594 16.8395 24.9594 17.7995ZM26.0506 17.7995C26.0506 16.3152 25.0729 15.0769 23.7851 14.8123L26.8656 4.875H12.3045L15.3897 14.8325C14.1466 15.1351 13.2142 16.35 13.2142 17.7995C13.2142 18.8878 13.7401 19.8439 14.5282 20.381C14.1491 20.9988 13.6995 21.5801 13.1844 22.1117C12.3674 22.9547 11.4572 23.594 10.476 24.0146C9.48764 23.3356 9.06983 22.055 9.50374 20.9394L9.53773 20.852C9.55901 20.7974 9.58029 20.7427 9.60151 20.6879C10.6871 20.2738 11.4683 19.1437 11.4683 17.817C11.4683 16.1406 10.2214 14.7769 8.68878 14.7769C7.15615 14.7769 5.90925 16.1406 5.90925 17.817C5.90925 18.6631 6.22722 19.4294 6.73899 19.981C6.64624 20.1972 6.54858 20.4171 6.44835 20.6423C5.98045 21.6935 5.45013 22.8849 5.24957 24.2078C4.85123 26.8353 5.49378 28.9357 7.05882 30.1221C8.00854 30.842 8.97293 31.125 9.94349 31.125C11.771 31.125 13.6197 30.1208 15.4278 29.1385C16.7299 28.4311 18.0765 27.6996 19.4065 27.3408C19.9014 27.2073 20.4106 27.127 20.9498 27.042C22.0189 26.8733 23.1244 26.6989 24.1036 26.0786C25.2387 25.3594 26.0158 24.1532 26.2355 22.7692C26.4241 21.581 26.1971 20.3909 25.6435 19.3817C25.9016 18.9204 26.0506 18.3787 26.0506 17.7995Z" fill="white"/>
</svg>
