<svg width="36" height="46" viewBox="0 0 36 46" fill="none" xmlns="http://www.w3.org/2000/svg">
<path d="M2 4.5C2 3.11929 3.11929 2 4.5 2H19.5C27.5081 2 34 8.49187 34 16.5V25.5C34 35.7173 25.7173 44 15.5 44H4.5C3.11929 44 2 42.8807 2 41.5V4.5Z" stroke="#64F4AC" stroke-width="3"/>
<path d="M16.88 31.5H11.4936V14.0455H17.1186C18.8118 14.0455 20.2607 14.3949 21.4652 15.0938C22.6698 15.7869 23.5931 16.7841 24.2351 18.0852C24.8772 19.3807 25.1982 20.9318 25.1982 22.7386C25.1982 24.5568 24.8743 26.1222 24.2266 27.4347C23.5789 28.7415 22.6357 29.7472 21.3971 30.4517C20.1584 31.1506 18.6527 31.5 16.88 31.5ZM13.6073 29.625H16.7436C18.1868 29.625 19.3828 29.3466 20.3317 28.7898C21.2806 28.233 21.988 27.4403 22.4539 26.4119C22.9198 25.3835 23.1527 24.1591 23.1527 22.7386C23.1527 21.3295 22.9226 20.1165 22.4624 19.0994C22.0022 18.0767 21.3147 17.2926 20.3999 16.7472C19.4851 16.196 18.3459 15.9205 16.9823 15.9205H13.6073V29.625Z" fill="white"/>
</svg>
