<svg width="32" height="40" viewBox="0 0 32 40" fill="none" xmlns="http://www.w3.org/2000/svg">
<g clip-path="url(#clip0_85_191)">
<path d="M17.707 19.7076L20.2413 23.4957L23.6491 26.3436L24.2433 19.7309L23.6491 13.2658L20.1759 15.7679L17.707 19.7076Z" fill="#00832D"/>
<path d="M2.99997 25.7297V31.3634C2.99997 32.6513 3.79771 33.6945 4.78262 33.6945H9.0907L9.98203 29.4363L9.0907 25.7297L6.13447 24.5641L2.99997 25.7297Z" fill="#0066DA"/>
<path d="M9.0907 5.72021L2.99997 13.685L6.13447 14.8506L9.0907 13.685L9.96717 10.029L9.0907 5.72021Z" fill="#E94235"/>
<path d="M9.0907 13.6854H2.99997V25.7297H9.0907V13.6854Z" fill="#2684FC"/>
<path d="M27.5412 9.09313L23.6491 13.2659V26.3437L27.559 30.5359C28.1443 31.1343 29 30.5884 29 29.6151V9.99451C29 9.0096 28.125 8.46954 27.5412 9.09313ZM17.7069 19.7077V25.7299H9.09073V33.6947H21.8664C22.8513 33.6947 23.6491 32.6515 23.6491 31.3635V26.3437L17.7069 19.7077Z" fill="#00AC47"/>
<path d="M21.8664 5.7207H9.09073V13.6855H17.7069V19.7077L23.6491 13.2698V8.05187C23.6491 6.7639 22.8513 5.7207 21.8664 5.7207Z" fill="#FFBA00"/>
</g>
<defs>
<clipPath id="clip0_85_191">
<rect width="26" height="34" fill="white" transform="translate(3 3)"/>
</clipPath>
</defs>
</svg>
