<svg width="32" height="36" viewBox="0 0 32 36" fill="none" xmlns="http://www.w3.org/2000/svg">
<path d="M16 31.125C15.6693 31.125 15.3606 31.0285 15.0739 30.8597L12.1415 28.9546C11.7005 28.6893 11.921 28.5928 12.0533 28.5446C12.6486 28.3276 12.7588 28.2793 13.3762 27.8935C13.4423 27.8453 13.5305 27.8694 13.5967 27.9176L15.8456 29.3887C15.9338 29.4369 16.0441 29.4369 16.1102 29.3887L24.9077 23.8179C24.9958 23.7697 25.0399 23.6732 25.0399 23.5527V12.4353C25.0399 12.3147 24.9958 12.2182 24.9077 12.17L16.1102 6.62339C16.022 6.57516 15.9118 6.57516 15.8456 6.62339L7.04821 12.17C6.96002 12.2182 6.91592 12.3388 6.91592 12.4353V23.5527C6.91592 23.6491 6.96002 23.7697 7.04821 23.8179L9.45152 25.3372C10.7524 26.0607 11.5682 25.2166 11.5682 24.3726V13.3999C11.5682 13.2552 11.6784 13.1105 11.8328 13.1105H12.9573C13.0896 13.1105 13.2218 13.2311 13.2218 13.3999V24.3726C13.2218 26.2777 12.2738 27.3871 10.6201 27.3871C10.113 27.3871 9.7161 27.3871 8.59162 26.7842L6.27651 25.3372C5.70324 24.9755 5.35046 24.3002 5.35046 23.5768V12.4594C5.35046 11.7359 5.70324 11.0607 6.27651 10.699L15.0739 5.12822C15.6252 4.79059 16.3748 4.79059 16.926 5.12822L25.7235 10.699C26.2967 11.0607 26.6495 11.7359 26.6495 12.4594V23.5768C26.6495 24.3002 26.2967 24.9755 25.7235 25.3372L16.926 30.908C16.6394 31.0527 16.3087 31.125 16 31.125ZM18.712 23.4803C14.8534 23.4803 14.0597 21.551 14.0597 19.9112C14.0597 19.7665 14.1699 19.6218 14.3243 19.6218H15.4708C15.6031 19.6218 15.7133 19.7182 15.7133 19.8629C15.8897 21.1411 16.3969 21.7681 18.734 21.7681C20.5861 21.7681 21.3799 21.3099 21.3799 20.2247C21.3799 19.5977 21.1594 19.1395 18.271 18.826C15.8677 18.5607 14.3684 17.9819 14.3684 15.8838C14.3684 13.9305 15.8677 12.7729 18.3812 12.7729C21.2035 12.7729 22.5925 13.834 22.7689 16.1491C22.7689 16.2215 22.7469 16.2938 22.7028 16.3662C22.6587 16.4144 22.5925 16.4626 22.5264 16.4626H21.3799C21.2696 16.4626 21.1594 16.3662 21.1373 16.2456C20.8727 14.9192 20.1892 14.4851 18.3812 14.4851C16.3528 14.4851 16.1102 15.2568 16.1102 15.8356C16.1102 16.535 16.3969 16.752 19.1309 17.1379C21.8429 17.5237 23.1217 18.0784 23.1217 20.1523C23.0997 22.2745 21.5122 23.4803 18.712 23.4803Z" fill="#539E43"/>
</svg>
