<svg width="32" height="36" viewBox="0 0 32 36" fill="none" xmlns="http://www.w3.org/2000/svg">
<path d="M27.9019 19.6666C28.7417 12.4754 24.0985 5.90093 17.5357 4.98235C10.9729 4.06376 4.93799 9.14222 4.09815 16.3203C3.2583 23.4984 7.90146 30.0859 14.4643 31.0177C21.0391 31.9362 27.05 26.8578 27.9019 19.6666Z" fill="#FF6C37"/>
<path d="M20.3312 13.3022L15.2681 18.8399L13.8404 17.2783C18.8195 11.8324 19.3114 12.3049 20.3312 13.3022Z" fill="white"/>
<path d="M15.2682 18.9711C15.2322 18.9711 15.2082 18.958 15.1842 18.9318L13.7444 17.3702C13.6964 17.3177 13.6964 17.239 13.7444 17.1865C18.8075 11.6487 19.3354 12.1736 20.4032 13.2234C20.4272 13.2497 20.4392 13.2759 20.4392 13.3153C20.4392 13.3547 20.4272 13.3809 20.4032 13.4071L15.3401 18.9318C15.3281 18.958 15.2921 18.9711 15.2682 18.9711ZM14.0084 17.2783L15.2682 18.6562L20.1513 13.3153C19.2634 12.4492 18.6635 12.1867 14.0084 17.2783Z" fill="#FF6C37"/>
<path d="M16.7199 20.4278L15.3402 18.9187L20.4033 13.3809C21.759 14.8769 19.7314 17.3046 16.7199 20.4278Z" fill="white"/>
<path d="M16.7199 20.559C16.6839 20.559 16.6599 20.5459 16.6359 20.5196L15.2562 19.0105C15.2322 18.9843 15.2322 18.958 15.2322 18.9187C15.2322 18.8793 15.2442 18.8531 15.2682 18.8268L20.3313 13.2891C20.3793 13.2366 20.4512 13.2366 20.4992 13.2891C20.8112 13.604 20.9791 14.0502 20.9671 14.5095C20.9431 15.9661 19.4314 17.8164 16.8159 20.5196C16.7799 20.5459 16.7439 20.559 16.7199 20.559ZM15.5081 18.9187C16.276 19.7716 16.5999 20.1128 16.7199 20.2441C18.7355 18.1444 20.6912 15.9923 20.7032 14.5095C20.7152 14.1683 20.5952 13.8271 20.3912 13.5646L15.5081 18.9187Z" fill="#FF6C37"/>
<path d="M13.8645 17.3177L14.8843 18.4331C14.9083 18.4593 14.9083 18.4856 14.8843 18.5118C14.8723 18.5249 14.8723 18.5249 14.8603 18.5249L12.7487 19.0236C12.6407 19.0367 12.5447 18.958 12.5207 18.8399C12.5087 18.7743 12.5327 18.7087 12.5687 18.6693L13.7925 17.3308C13.8165 17.3045 13.8525 17.2914 13.8645 17.3177Z" fill="white"/>
<path d="M12.7126 19.1549C12.5327 19.1549 12.4007 18.9974 12.4007 18.8006C12.4007 18.7087 12.4367 18.6168 12.4967 18.5512L13.7205 17.2127C13.7924 17.1471 13.8884 17.1471 13.9604 17.2127L14.9802 18.3281C15.0522 18.3938 15.0522 18.5119 14.9802 18.5906C14.9562 18.6168 14.9322 18.63 14.8962 18.6431L12.7846 19.1417C12.7606 19.1417 12.7366 19.1549 12.7126 19.1549ZM13.8284 17.4621L12.6527 18.7481C12.6287 18.7743 12.6167 18.8137 12.6407 18.8531C12.6527 18.8924 12.6886 18.9055 12.7246 18.8924L14.7043 18.42L13.8284 17.4621Z" fill="#FF6C37"/>
<path d="M23.0068 10.2315C22.2389 9.41789 21.0032 9.44413 20.2593 10.2971C19.5154 11.1501 19.5394 12.4886 20.3193 13.3022C20.9552 13.9714 21.915 14.0895 22.6709 13.5909L21.3031 12.0949L23.0068 10.2315Z" fill="white"/>
<path d="M21.663 14.0239C20.5232 14.0239 19.5994 13.0134 19.5994 11.7668C19.5994 10.5201 20.5232 9.5097 21.663 9.5097C22.1909 9.5097 22.7068 9.73279 23.0908 10.1396C23.1148 10.1658 23.1268 10.1921 23.1268 10.2314C23.1268 10.2708 23.1148 10.2971 23.0908 10.3233L21.4711 12.0949L22.7428 13.4859C22.7908 13.5384 22.7908 13.6171 22.7428 13.6696C22.7308 13.6827 22.7308 13.6827 22.7188 13.6958C22.4069 13.9058 22.035 14.0239 21.663 14.0239ZM21.663 9.78528C20.6552 9.78528 19.8394 10.6776 19.8514 11.7799C19.8514 12.8822 20.6672 13.7746 21.675 13.7614C21.951 13.7614 22.2269 13.6958 22.4789 13.5515L21.2191 12.1867C21.1951 12.1605 21.1831 12.1342 21.1831 12.0949C21.1831 12.0555 21.1951 12.0293 21.2191 12.003L22.8268 10.2446C22.5029 9.94275 22.0949 9.78528 21.663 9.78528Z" fill="#FF6C37"/>
<path d="M23.0428 10.2708L23.0188 10.2446L21.3031 12.0949L22.6589 13.5777C22.7908 13.4859 22.9228 13.3809 23.0308 13.2628C23.7987 12.436 23.7987 11.0975 23.0428 10.2708Z" fill="white"/>
<path d="M22.6708 13.7221C22.6348 13.7221 22.6108 13.7089 22.5869 13.6827L21.2191 12.1867C21.1951 12.1605 21.1831 12.1342 21.1831 12.0949C21.1831 12.0555 21.1951 12.0292 21.2191 12.003L22.9228 10.1396C22.9708 10.0871 23.0428 10.0871 23.0908 10.1396L23.1268 10.1658C23.9306 11.045 23.9306 12.4623 23.1388 13.3546C23.0188 13.4859 22.8868 13.604 22.7428 13.6958C22.7068 13.7089 22.6828 13.7221 22.6708 13.7221ZM21.4711 12.0949L22.6828 13.4202C22.7788 13.3546 22.8748 13.2628 22.9468 13.184C23.6307 12.436 23.6667 11.2156 23.0068 10.4283L21.4711 12.0949Z" fill="#FF6C37"/>
<path d="M20.5353 13.5383C20.2473 13.2234 19.7794 13.2234 19.4914 13.5383L14.9683 18.4856L15.7241 19.3123L20.5113 14.7194C20.8232 14.4307 20.8472 13.9189 20.5833 13.5777C20.5593 13.5646 20.5473 13.5515 20.5353 13.5383Z" fill="white"/>
<path d="M15.7121 19.4435C15.6761 19.4435 15.6521 19.4304 15.6281 19.4041L14.8722 18.5774C14.8242 18.5249 14.8242 18.4462 14.8722 18.3937L19.3954 13.4465C19.7314 13.079 20.2713 13.079 20.6072 13.4465C20.9431 13.8139 20.9431 14.4044 20.6072 14.7719C20.5952 14.785 20.5832 14.7981 20.5712 14.8112L15.7841 19.4041C15.7721 19.4304 15.7481 19.4435 15.7121 19.4435ZM15.1362 18.4856L15.7241 19.1286L20.4272 14.6144C20.6912 14.3782 20.7152 13.9451 20.4992 13.6564C20.2833 13.3677 19.8873 13.3415 19.6234 13.5777C19.6114 13.5908 19.5994 13.6039 19.5754 13.6171L15.1362 18.4856Z" fill="#FF6C37"/>
<path d="M11.5009 24.1152C11.4529 24.1414 11.4289 24.1939 11.4409 24.2464L11.6448 25.1913C11.6928 25.3225 11.6208 25.48 11.4889 25.5193C11.3929 25.5587 11.2849 25.5193 11.2249 25.4406L9.90515 24.0102L14.2124 19.2992L15.7001 19.3254L16.7079 20.4277C16.468 20.6508 15.0162 22.1862 11.5009 24.1152Z" fill="white"/>
<path d="M11.4049 25.6506C11.3089 25.6506 11.2129 25.6112 11.1529 25.5324L9.84517 24.1021C9.82117 24.0758 9.80917 24.0496 9.80917 24.0102C9.80917 23.9709 9.82117 23.9446 9.84517 23.9184L14.1524 19.2073C14.1764 19.1811 14.2124 19.168 14.2364 19.168L15.7241 19.1942C15.7601 19.1942 15.7841 19.2073 15.8081 19.2336L16.8159 20.3359C16.8399 20.3621 16.8519 20.4015 16.8519 20.4409C16.8519 20.4802 16.8399 20.5065 16.8039 20.5327L16.7199 20.6115C15.4482 21.8319 13.7205 23.0523 11.5729 24.2202L11.7768 25.1519C11.8128 25.3225 11.7408 25.5062 11.5969 25.5981C11.5249 25.6374 11.4649 25.6506 11.4049 25.6506ZM10.0851 24.0102L11.3209 25.3487C11.3569 25.4143 11.4289 25.4406 11.4889 25.4012C11.5489 25.3619 11.5729 25.2831 11.5369 25.2175L11.3329 24.2727C11.3089 24.1546 11.3569 24.0496 11.4529 23.9971C13.5765 22.8292 15.2922 21.6219 16.552 20.4277L15.6641 19.4567L14.2844 19.4304L10.0851 24.0102Z" fill="#FF6C37"/>
<path d="M8.88535 25.1387L9.91717 24.0102L11.4529 25.6899L9.00533 25.5062C8.89735 25.4931 8.82537 25.3881 8.83736 25.27C8.83736 25.2175 8.84936 25.165 8.88535 25.1387Z" fill="white"/>
<path d="M11.4529 25.808L8.9933 25.6243C8.81333 25.6112 8.69336 25.4406 8.70535 25.2437C8.71735 25.165 8.74135 25.0862 8.80134 25.0338L9.83315 23.9052C9.88114 23.8527 9.95313 23.8527 10.0011 23.9052L11.5368 25.5849C11.5728 25.6243 11.5848 25.6768 11.5608 25.7293C11.5368 25.7817 11.5009 25.808 11.4529 25.808ZM9.91714 24.1939L8.96931 25.2306C8.93331 25.2568 8.93331 25.3225 8.96931 25.3487C8.9813 25.3618 8.9933 25.3749 9.0173 25.3749L11.1409 25.5324L9.91714 24.1939Z" fill="#FF6C37"/>
<path d="M13.7924 19.9028C13.7204 19.9028 13.6725 19.8372 13.6725 19.7716C13.6725 19.7322 13.6845 19.706 13.7084 19.6798L14.8722 18.4069C14.9202 18.3544 14.9922 18.3544 15.0402 18.4069L15.7961 19.2336C15.8321 19.273 15.8441 19.3123 15.8321 19.3648C15.8201 19.4042 15.7841 19.4435 15.7361 19.4567L13.8164 19.9028C13.8044 19.9028 13.7924 19.9028 13.7924 19.9028ZM14.9562 18.6824L14.1644 19.5485L15.4601 19.2467L14.9562 18.6824Z" fill="#FF6C37"/>
<path d="M15.7001 19.3254L14.3804 19.6404C14.2844 19.6666 14.1884 19.601 14.1644 19.496C14.1524 19.4304 14.1644 19.3648 14.2124 19.3123L14.9443 18.5118L15.7001 19.3254Z" fill="white"/>
<path d="M14.3563 19.7716C14.1884 19.7716 14.0564 19.6273 14.0564 19.4435C14.0564 19.3517 14.0924 19.273 14.1404 19.2073L14.8722 18.4069C14.9202 18.3544 14.9922 18.3544 15.0402 18.4069L15.7961 19.2336C15.8321 19.273 15.8441 19.3123 15.8321 19.3648C15.8201 19.4042 15.7841 19.4435 15.7361 19.4567L14.4163 19.7716C14.3923 19.7716 14.3683 19.7716 14.3563 19.7716ZM14.9562 18.6824L14.3084 19.3911C14.2844 19.4173 14.2844 19.4435 14.2964 19.4698C14.3084 19.496 14.3323 19.5092 14.3683 19.5092L15.4721 19.2467L14.9562 18.6824Z" fill="#FF6C37"/>
<path d="M23.0548 11.5306C23.0308 11.4518 22.9468 11.4125 22.8748 11.4387C22.8028 11.4649 22.7668 11.5568 22.7908 11.6355C22.7908 11.6487 22.8028 11.6618 22.8028 11.6749C22.8748 11.8324 22.8508 12.0292 22.7548 12.1736C22.7068 12.2392 22.7188 12.331 22.7668 12.3835C22.8268 12.436 22.9108 12.4229 22.9588 12.3573C23.1388 12.108 23.1747 11.793 23.0548 11.5306Z" fill="#FF6C37"/>
</svg>
