<svg width="32" height="36" viewBox="0 0 32 36" fill="none" xmlns="http://www.w3.org/2000/svg">
<path d="M23.7328 13.8923C23.4838 13.7985 23.2259 13.7098 22.9602 13.626C23.0039 13.4311 23.044 13.2387 23.0796 13.0496C23.6644 9.94463 23.282 7.44323 21.9763 6.61966C20.7243 5.82996 18.6767 6.65335 16.6087 8.62176C16.4099 8.81104 16.2104 9.01145 16.0111 9.22147C15.8783 9.08251 15.7457 8.94823 15.6134 8.81978C13.4461 6.71502 11.2738 5.82805 9.96931 6.654C8.71847 7.44598 8.34805 9.79754 8.87449 12.7402C8.92532 13.0244 8.98475 13.3146 9.05194 13.6098C8.74449 13.7052 8.44767 13.807 8.16367 13.9152C5.62275 14.8842 4 16.4027 4 17.9779C4 19.6047 5.74202 21.2364 8.38859 22.2258C8.59745 22.3039 8.81417 22.3777 9.0375 22.4478C8.96501 22.7669 8.90195 23.0797 8.84903 23.3848C8.34707 26.2763 8.73906 28.5723 9.98656 29.3593C11.2751 30.1721 13.4377 29.3367 15.5435 27.3234C15.7099 27.1643 15.8769 26.9955 16.0443 26.8186C16.2611 27.047 16.4777 27.2632 16.6931 27.466C18.7328 29.3858 20.7473 30.161 21.9937 29.3718C23.2809 28.5567 23.6993 26.0903 23.1561 23.0894C23.1147 22.8603 23.0664 22.6261 23.0122 22.3878C23.164 22.3387 23.3131 22.288 23.4585 22.2353C26.2099 21.2383 28 19.6264 28 17.9779C28 16.397 26.3249 14.8682 23.7328 13.8923ZM23.1361 21.1709C23.0048 21.2184 22.8702 21.2643 22.733 21.3089C22.4292 20.2571 22.0193 19.1388 21.5176 17.9833C21.9963 16.8554 22.3904 15.7513 22.6857 14.7064C22.9312 14.7841 23.1695 14.8661 23.3991 14.9526C25.62 15.7888 26.9747 17.0252 26.9747 17.9779C26.9747 18.9926 25.5117 20.3099 23.1361 21.1709ZM22.1504 23.3072C22.3905 24.6342 22.4248 25.8339 22.2657 26.7717C22.1228 27.6144 21.8353 28.1763 21.4799 28.4013C20.7236 28.8802 19.1061 28.2577 17.3617 26.6159C17.1618 26.4277 16.9603 26.2268 16.7583 26.0141C17.4345 25.2051 18.1104 24.2647 18.77 23.2203C19.9303 23.1077 21.0264 22.9236 22.0204 22.6722C22.0694 22.8882 22.1129 23.1001 22.1504 23.3072ZM12.1821 28.3186C11.4432 28.604 10.8546 28.6122 10.4989 28.3878C9.74182 27.9103 9.42711 26.0668 9.8564 23.5939C9.90557 23.3107 9.96409 23.0198 10.0315 22.7225C11.0147 22.9602 12.1028 23.1314 13.2658 23.2345C13.9299 24.2565 14.6253 25.1959 15.3261 26.0184C15.1729 26.1801 15.0204 26.334 14.8688 26.479C13.9376 27.3693 13.0045 28.0009 12.1821 28.3186ZM8.72018 21.1647C7.54992 20.7272 6.58347 20.1586 5.92102 19.5381C5.32576 18.9806 5.02523 18.427 5.02523 17.9779C5.02523 17.022 6.32814 15.8028 8.50116 14.9742C8.76482 14.8736 9.04084 14.7789 9.32727 14.6898C9.62759 15.7583 10.0216 16.8755 10.497 18.0051C10.0154 19.1516 9.61584 20.2865 9.31258 21.3675C9.10838 21.3033 8.91054 21.2358 8.72018 21.1647ZM9.88066 12.5248C9.42963 10.0036 9.72918 8.10176 10.483 7.62452C11.2859 7.11611 13.0614 7.84099 14.9326 9.65835C15.0523 9.77451 15.1723 9.89608 15.2928 10.0219C14.5955 10.8408 13.9064 11.7732 13.2483 12.7891C12.1195 12.9036 11.039 13.0874 10.0456 13.3335C9.98319 13.0587 9.92787 12.7888 9.88066 12.5248ZM20.2332 15.3208C19.9957 14.8721 19.7519 14.4341 19.5034 14.008C20.2691 14.1139 21.0028 14.2544 21.6918 14.4264C21.4849 15.1515 21.2271 15.9096 20.9236 16.6868C20.7059 16.2347 20.4757 15.7789 20.2332 15.3208ZM16.0114 10.8233C16.4844 11.3837 16.9579 12.0093 17.4238 12.6881C16.9544 12.6639 16.4791 12.6512 16 12.6512C15.5254 12.6512 15.0537 12.6636 14.5872 12.6874C15.0535 12.0149 15.5312 11.3901 16.0114 10.8233ZM11.7627 15.3285C11.5255 15.7784 11.2995 16.2318 11.0852 16.6859C10.7866 15.9115 10.5312 15.1499 10.3226 14.4145C11.0073 14.2469 11.7375 14.1099 12.4984 14.006C12.2464 14.436 12.0005 14.8773 11.7627 15.3284V15.3285ZM12.5203 22.0297C11.7342 21.9338 10.993 21.8038 10.3084 21.6408C10.5204 20.8923 10.7814 20.1145 11.0863 19.3233C11.3012 19.7772 11.5281 20.2307 11.7667 20.6816H11.7668C12.0099 21.1409 12.2618 21.5909 12.5203 22.0297ZM16.0398 25.2115C15.5539 24.638 15.0692 24.0037 14.5958 23.3214C15.0553 23.3411 15.5238 23.3512 16 23.3512C16.4892 23.3512 16.9728 23.3391 17.4488 23.316C16.9814 24.0106 16.5095 24.6459 16.0398 25.2115ZM20.9334 19.283C21.2542 20.0827 21.5246 20.8565 21.7393 21.5922C21.0434 21.7658 20.2921 21.9057 19.5005 22.0096C19.7497 21.5778 19.9956 21.1322 20.2373 20.6739C20.4818 20.2102 20.7139 19.7458 20.9334 19.283ZM19.3492 20.1136C18.974 20.8251 18.5889 21.5043 18.1978 22.1454C17.4857 22.2011 16.7499 22.2298 16 22.2298C15.2531 22.2298 14.5266 22.2044 13.8271 22.1548C13.4203 21.5052 13.0268 20.824 12.654 20.1198H12.6541C12.2823 19.4174 11.9401 18.7091 11.63 18.0048C11.94 17.2988 12.2813 16.5897 12.6509 15.8886L12.6509 15.8888C13.0215 15.1858 13.4116 14.5079 13.8146 13.8624C14.5284 13.8034 15.2603 13.7726 16 13.7726H16C16.743 13.7726 17.4759 13.8037 18.1894 13.8632C18.5863 14.5039 18.9737 15.1796 19.3458 15.8827C19.7221 16.5936 20.0678 17.298 20.3804 17.9888C20.0688 18.6915 19.7238 19.403 19.3492 20.1136ZM21.4642 7.59116C22.2679 8.09807 22.5804 10.1425 22.0755 12.8233C22.0433 12.9943 22.007 13.1686 21.9676 13.3452C20.9719 13.0939 19.8907 12.9069 18.7586 12.7907C18.0992 11.7636 17.4158 10.8298 16.7298 10.0214C16.9142 9.8273 17.0984 9.64227 17.2818 9.46766C19.0536 7.78114 20.7097 7.11527 21.4642 7.59116ZM16 15.6338C17.1836 15.6338 18.1431 16.6833 18.1431 17.9779C18.1431 19.2724 17.1836 20.3219 16 20.3219C14.8164 20.3219 13.8569 19.2724 13.8569 17.9779C13.8569 16.6833 14.8164 15.6338 16 15.6338Z" fill="#00D8FF"/>
</svg>
