<svg width="32" height="36" viewBox="0 0 32 36" fill="none" xmlns="http://www.w3.org/2000/svg">
<g clip-path="url(#clip0_85_212)">
<g clip-path="url(#clip1_85_212)">
<path fill-rule="evenodd" clip-rule="evenodd" d="M12.5325 3.5C11.0952 3.50118 9.93207 4.79953 9.93313 6.39941C9.93207 7.99929 11.0963 9.29763 12.5336 9.29882H15.134V6.40059C15.135 4.80071 13.9708 3.50236 12.5325 3.5C12.5336 3.5 12.5336 3.5 12.5325 3.5V3.5ZM12.5325 11.2333H5.60015C4.16291 11.2345 2.99867 12.5329 2.99973 14.1327C2.9976 15.7326 4.16185 17.031 5.59909 17.0333H12.5325C13.9697 17.0322 15.134 15.7338 15.1329 14.1339C15.134 12.5329 13.9697 11.2345 12.5325 11.2333V11.2333Z" fill="#36C5F0"/>
<path fill-rule="evenodd" clip-rule="evenodd" d="M29.0001 14.1327C29.0012 12.5329 27.8369 11.2345 26.3997 11.2333C24.9624 11.2345 23.7981 12.5329 23.7992 14.1327V17.0333H26.3997C27.8369 17.0322 29.0012 15.7338 29.0001 14.1327ZM22.0666 14.1327V6.39941C22.0677 4.80071 20.9045 3.50236 19.4672 3.5C18.03 3.50118 16.8657 4.79953 16.8668 6.39941V14.1327C16.8646 15.7326 18.0289 17.031 19.4662 17.0333C20.9034 17.0322 22.0677 15.7338 22.0666 14.1327Z" fill="#2EB67D"/>
<path fill-rule="evenodd" clip-rule="evenodd" d="M19.466 32.5C20.9032 32.4988 22.0675 31.2005 22.0664 29.6006C22.0675 28.0007 20.9032 26.7024 19.466 26.7012H16.8655V29.6006C16.8644 31.1993 18.0287 32.4977 19.466 32.5ZM19.466 24.7655H26.3995C27.8367 24.7643 29.001 23.466 28.9999 21.8661C29.0021 20.2662 27.8378 18.9679 26.4005 18.9655H19.467C18.0298 18.9667 16.8655 20.265 16.8666 21.8649C16.8655 23.466 18.0287 24.7643 19.466 24.7655V24.7655Z" fill="#ECB22E"/>
<path fill-rule="evenodd" clip-rule="evenodd" d="M3 21.8659C2.99894 23.4658 4.16319 24.7642 5.60044 24.7654C7.0377 24.7642 8.20195 23.4658 8.20089 21.8659V18.9665H5.60044C4.16319 18.9677 2.99894 20.266 3 21.8659ZM9.93345 21.8659V29.5994C9.93133 31.1993 11.0956 32.4977 12.5328 32.5C13.9701 32.4988 15.1343 31.2005 15.1333 29.6006V21.8683C15.1354 20.2684 13.9712 18.97 12.5339 18.9677C11.0956 18.9677 9.93239 20.266 9.93345 21.8659C9.93345 21.8671 9.93345 21.8659 9.93345 21.8659Z" fill="#E01E5A"/>
</g>
</g>
<defs>
<clipPath id="clip0_85_212">
<rect width="26" height="29" fill="white" transform="translate(3 3.5)"/>
</clipPath>
<clipPath id="clip1_85_212">
<rect width="26" height="29" fill="white" transform="translate(3 3.5)"/>
</clipPath>
</defs>
</svg>
