<svg width="32" height="36" viewBox="0 0 32 36" fill="none" xmlns="http://www.w3.org/2000/svg">
<mask id="mask0_85_114" style="mask-type:alpha" maskUnits="userSpaceOnUse" x="5" y="3" width="22" height="30">
<path d="M6.12526 30.2928L5.29918 6.21799C5.2719 5.42289 5.82929 4.74906 6.55533 4.69942L25.2775 3.41959C26.0165 3.36907 26.653 3.98338 26.6992 4.79169C26.7009 4.82214 26.7018 4.85265 26.7018 4.88316V31.1169C26.7018 31.9268 26.1016 32.5834 25.3611 32.5834C25.341 32.5834 25.321 32.5829 25.3009 32.5819L7.40489 31.7028C6.70791 31.6685 6.15142 31.0554 6.12526 30.2928Z" fill="white"/>
</mask>
<g mask="url(#mask0_85_114)">
<path d="M6.12526 30.2928L5.29918 6.21799C5.2719 5.42289 5.82929 4.74906 6.55533 4.69942L25.2775 3.41959C26.0165 3.36907 26.653 3.98338 26.6992 4.79169C26.7009 4.82214 26.7018 4.85265 26.7018 4.88316V31.1169C26.7018 31.9268 26.1016 32.5834 25.3611 32.5834C25.341 32.5834 25.321 32.5829 25.3009 32.5819L7.40489 31.7028C6.70791 31.6685 6.15142 31.0554 6.12526 30.2928Z" fill="#FF4785"/>
<path d="M21.1031 7.00174L21.231 3.63764L23.8021 3.41669L23.9129 6.88596C23.9167 7.0067 23.8304 7.108 23.72 7.11221C23.6727 7.11402 23.6264 7.09744 23.5892 7.06543L22.5977 6.21113L21.4238 7.1851C21.3358 7.25812 21.2103 7.23928 21.1436 7.14303C21.1155 7.10251 21.1012 7.05255 21.1031 7.00174ZM17.8149 14.41C17.8149 14.9805 21.3285 14.7071 21.8001 14.3063C21.8001 10.4212 19.8942 8.37962 16.404 8.37962C12.9138 8.37962 10.9583 10.453 10.9583 13.563C10.9583 18.9796 17.6416 19.0833 17.6416 22.0378C17.6416 22.8671 17.2703 23.3595 16.4535 23.3595C15.3891 23.3595 14.9683 22.765 15.0178 20.7435C15.0178 20.3049 10.9583 20.1682 10.8345 20.7435C10.5194 25.6423 13.3098 27.0553 16.503 27.0553C19.5971 27.0553 22.0229 25.2514 22.0229 21.9859C22.0229 16.1806 15.2406 16.3361 15.2406 13.4593C15.2406 12.2931 16.0327 12.1376 16.503 12.1376C16.998 12.1376 17.8892 12.233 17.8149 14.41Z" fill="white"/>
</g>
</svg>
