<svg width="32" height="36" viewBox="0 0 32 36" fill="none" xmlns="http://www.w3.org/2000/svg">
<path d="M4 18V31.125H16H28V18V4.875H16H4V18Z" fill="#007ACC"/>
<path d="M9.30731 18.087L9.29969 19.162H10.8616H12.4235V24.0162V28.8704H13.5283H14.633V24.0162V19.162H16.1949H17.7568V18.1079C17.7568 17.5245 17.7454 17.037 17.7302 17.0245C17.7187 17.0079 15.8178 16.9995 13.513 17.0037L9.31874 17.0162L9.30731 18.087Z" fill="white"/>
<path d="M23.3656 16.9857C23.9751 17.1524 24.4399 17.4482 24.8666 17.9315C25.0875 18.1899 25.4151 18.6607 25.4418 18.7732C25.4494 18.8065 24.4056 19.5732 23.7732 20.0024C23.7504 20.019 23.6589 19.9107 23.5561 19.744C23.2475 19.2524 22.9237 19.0399 22.4285 19.0024C21.7008 18.9482 21.2323 19.3649 21.2361 20.0607C21.2361 20.2649 21.2628 20.3857 21.3389 20.5524C21.4989 20.9149 21.7961 21.1315 22.7294 21.5732C24.4475 22.3815 25.1828 22.9149 25.6399 23.6732C26.1504 24.519 26.2647 25.869 25.918 26.8732C25.537 27.9649 24.5923 28.7065 23.2628 28.9524C22.8513 29.0315 21.8761 29.019 21.4342 28.9315C20.4704 28.744 19.5561 28.2232 18.9923 27.5399C18.7713 27.2732 18.3409 26.5774 18.3675 26.5274C18.3789 26.5107 18.478 26.444 18.5885 26.3732C18.6951 26.3065 19.0989 26.0524 19.4799 25.8107L20.1694 25.3732L20.3142 25.6065C20.5161 25.944 20.958 26.4065 21.2247 26.5607C21.9904 27.0024 23.0418 26.9399 23.5599 26.4315C23.7809 26.2107 23.8723 25.9815 23.8723 25.644C23.8723 25.3399 23.838 25.2065 23.6932 24.9774C23.5066 24.6857 23.1256 24.4399 22.0437 23.9274C20.8056 23.344 20.2723 22.9815 19.7847 22.4065C19.5028 22.0732 19.2361 21.5399 19.1256 21.094C19.0342 20.7232 19.0113 19.794 19.0837 19.419C19.3389 18.1107 20.2418 17.1982 21.5447 16.9274C21.9675 16.8399 22.9504 16.8732 23.3656 16.9857Z" fill="white"/>
</svg>
