<svg width="32" height="36" viewBox="0 0 32 36" fill="none" xmlns="http://www.w3.org/2000/svg">
<path d="M22.0015 5.92199C22.0015 5.09797 21.158 5.09796 20.7831 5.20096C21.3079 4.74775 21.9234 4.85763 22.1421 4.99496L27.2107 7.71325C27.6937 7.97226 28 8.51119 28 9.10178V26.9842C28 27.5827 27.6855 28.1273 27.1927 28.3822L22.4233 30.8488C22.0952 31.0033 21.3829 31.3844 20.7831 30.8488C21.5329 31.0033 21.939 30.4196 22.0015 30.0247V5.92199Z" fill="url(#paint0_linear_85_47)"/>
<path d="M20.8439 5.18604C21.2418 5.10003 22.0015 5.13992 22.0015 5.92193V12.0773L6.6345 24.7924C6.3659 25.0146 5.98789 24.9777 5.7591 24.707L4.17531 22.8325C3.9272 22.5389 3.94456 22.0792 4.21396 21.8092L20.7831 5.20089L20.8439 5.18604Z" fill="url(#paint1_linear_85_47)"/>
<path d="M22.0015 23.9724L6.6345 11.2573C6.3659 11.0351 5.98789 11.072 5.7591 11.3427L4.17531 13.2172C3.9272 13.5108 3.94456 13.9705 4.21396 14.2405L20.7831 30.8488V30.8488C21.5329 31.0033 21.939 30.4196 22.0015 30.0248V23.9724Z" fill="url(#paint2_linear_85_47)"/>
<defs>
<linearGradient id="paint0_linear_85_47" x1="24.3915" y1="4.875" x2="24.3915" y2="31.125" gradientUnits="userSpaceOnUse">
<stop stop-color="#32B5F1"/>
<stop offset="1" stop-color="#2B9FED"/>
</linearGradient>
<linearGradient id="paint1_linear_85_47" x1="22.0015" y1="8.18798" x2="3.62973" y2="22.2873" gradientUnits="userSpaceOnUse">
<stop stop-color="#0F6FB3"/>
<stop offset="0.270551" stop-color="#1279B7"/>
<stop offset="0.421376" stop-color="#1176B5"/>
<stop offset="0.618197" stop-color="#0E69AC"/>
<stop offset="0.855344" stop-color="#0F70AF"/>
<stop offset="1" stop-color="#0F6DAD"/>
</linearGradient>
<linearGradient id="paint2_linear_85_47" x1="4.99018" y1="12.3597" x2="23.289" y2="26.2124" gradientUnits="userSpaceOnUse">
<stop stop-color="#1791D2"/>
<stop offset="1" stop-color="#1173C5"/>
</linearGradient>
</defs>
</svg>
