<svg width="162" height="77" viewBox="0 0 162 77" fill="none" xmlns="http://www.w3.org/2000/svg">
<path d="M162 38.5029L157.677 36.0021V37.8607H154.262C153.994 36.9675 153.169 36.3167 152.19 36.3167C151.211 36.3167 150.386 36.9675 150.118 37.8607H142.523C144.877 27.7307 147.017 21.1548 148.889 17.0479C149.985 14.6395 150.992 13.084 151.857 12.1662C152.289 11.7073 152.683 11.4086 153.027 11.2282C153.372 11.0478 153.663 10.9843 153.927 10.9829C154.373 10.9829 154.795 11.1763 155.217 11.537C155.845 12.0724 156.394 12.9671 156.755 13.7218C156.938 14.0998 157.076 14.4418 157.17 14.6872C157.216 14.8098 157.251 14.9079 157.274 14.9743L157.298 15.0494L157.305 15.071L158.531 14.6857C158.521 14.6583 158.158 13.4894 157.438 12.2787C157.076 11.6727 156.626 11.0536 156.054 10.5601C155.486 10.0694 154.766 9.6957 153.928 9.6957C153.443 9.6957 152.935 9.82413 152.433 10.0868C151.553 10.55 150.684 11.3999 149.765 12.7564C148.39 14.7925 146.903 17.9888 145.279 22.885C144.002 26.7393 142.642 31.647 141.205 37.8593H130.135C129.867 36.9661 129.042 36.3153 128.063 36.3153C127.083 36.3153 126.258 36.9661 125.99 37.8593H117.802C117.486 36.764 117.174 35.6803 116.867 34.6197C115.947 31.4421 115.083 28.4839 114.359 26.0712C113.634 23.657 113.055 21.797 112.694 20.7854C112.45 20.1043 112.152 19.0624 111.804 17.8993C111.278 16.1518 110.64 14.1229 109.828 12.4851C109.42 11.6654 108.971 10.9396 108.434 10.3826C108.165 10.1055 107.871 9.86887 107.54 9.69715C107.21 9.52543 106.84 9.42299 106.455 9.42299C106.026 9.42299 105.593 9.54997 105.182 9.78519C104.462 10.2008 103.791 10.9266 103.085 12.0161C102.033 13.6539 100.912 16.1403 99.6753 19.7782C98.4396 23.4146 97.0932 28.2011 95.6185 34.4134C95.3377 35.5995 95.0597 36.7453 94.7861 37.8564H81.8785C81.6106 36.9632 80.7854 36.3124 79.8062 36.3124C78.8269 36.3124 78.0017 36.9632 77.7338 37.8564H68.3141C65.6917 30.3714 62.9512 22.7984 60.4828 16.9714C59.6937 15.1114 58.942 13.7333 58.1686 12.7766C58.0577 12.6395 57.9468 12.5125 57.8345 12.3942C57.8388 12.3408 57.8432 12.2888 57.8432 12.234C57.8432 11.26 57.2023 10.436 56.321 10.1632V4.33198H58.1758L55.6787 0L53.183 4.33198H55.0378V10.1632C54.1565 10.4374 53.5157 11.2614 53.5157 12.234C53.5157 12.2412 53.5157 12.2484 53.5157 12.2556C53.2377 12.537 52.9713 12.866 52.7092 13.2441C51.7573 14.6222 50.8543 16.6468 49.914 19.2702C48.291 23.8129 46.5772 30.1593 44.61 37.8564H33.6235C33.3556 36.9632 32.5305 36.3124 31.5512 36.3124C30.5719 36.3124 29.7468 36.9632 29.4789 37.8564H19.6488C19.2614 36.2273 18.887 34.6327 18.5269 33.1016C15.8944 21.8994 13.2619 16.2543 11.2227 13.3538C10.2017 11.905 9.32324 11.1402 8.65791 10.7347C7.99258 10.3277 7.53894 10.2917 7.42373 10.2931V11.159L7.39638 11.5789C7.43094 11.5846 7.74055 11.6308 8.28491 12.0334C9.10001 12.6351 10.4379 14.0551 12.0234 17.2933C13.609 20.53 15.4422 25.5777 17.2783 33.3975C17.6153 34.8347 17.9667 36.3283 18.3296 37.8564H9.49606C9.2282 36.9632 8.403 36.3124 7.42373 36.3124C6.44446 36.3124 5.6193 36.9632 5.35144 37.8564H0V39.1436H5.36294C5.64232 40.0166 6.45887 40.6487 7.42373 40.6487C8.3886 40.6487 9.20371 40.0166 9.48309 39.1436H18.6349C20.1773 45.5853 21.9357 52.5132 23.8611 58.3142C25.1212 62.1065 26.4489 65.4168 27.8617 67.8252C28.5702 69.0302 29.2989 70.0114 30.0852 70.7214C30.8657 71.4256 31.7384 71.8758 32.6831 71.8758C33.4853 71.8773 34.2745 71.5425 34.9902 70.9306C36.0688 70.01 37.0639 68.4789 38.0677 66.2105C39.0685 63.9406 40.0651 60.9261 41.066 57.0357C42.7394 50.532 44.2342 44.5174 45.6037 39.1422H53.615C53.8296 39.8132 54.361 40.3413 55.0335 40.5506V68.5597C54.1522 68.8339 53.5113 69.6579 53.5113 70.6305C53.5113 71.6031 54.1522 72.4271 55.0335 72.7012V77H56.3181V72.7012C57.1994 72.4271 57.8403 71.6045 57.8403 70.6305C57.8403 69.6564 57.1994 68.8325 56.3181 68.5597V40.5506C56.9906 40.3413 57.522 39.8132 57.7366 39.1422H67.4011C68.2335 41.526 69.0543 43.8941 69.8478 46.187C71.5356 51.0645 73.1039 55.5999 74.4331 59.2219C75.097 61.0329 75.7019 62.6159 76.2318 63.9031C76.7647 65.1917 77.2154 66.1773 77.6057 66.831C78.078 67.6189 78.6238 68.4299 79.2892 69.0749C79.6233 69.3967 79.989 69.6795 80.4009 69.8845C80.8113 70.0908 81.2708 70.2178 81.7575 70.2178C82.2702 70.2178 82.8016 70.0764 83.3229 69.7906C84.2373 69.287 85.1389 68.3707 86.1037 66.9176C87.5453 64.7357 89.1279 61.3186 90.9108 56.1266C92.3955 51.799 94.0156 46.2375 95.787 39.1422H101.871C102.151 40.0152 102.967 40.6472 103.931 40.6472C104.894 40.6472 105.712 40.0152 105.992 39.1422H116.833C117.694 42.1336 118.569 45.1913 119.395 48.0687C121.218 54.4253 122.793 59.8915 123.438 61.8872C123.868 63.2119 124.556 65.5366 125.516 67.5626C125.999 68.5771 126.548 69.5223 127.206 70.2524C127.535 70.6161 127.894 70.9277 128.299 71.1572C128.702 71.3852 129.157 71.5252 129.638 71.5252C130.102 71.5252 130.574 71.3939 131.026 71.1413C131.82 70.6954 132.569 69.9032 133.345 68.6968C134.506 66.8844 135.725 64.1109 137.043 60.0184C138.359 55.926 139.769 50.5161 141.274 43.4496C141.594 41.9503 141.909 40.5188 142.222 39.145H150.123C150.403 40.0181 151.219 40.6501 152.184 40.6501C153.149 40.6501 153.964 40.0181 154.244 39.145H157.67V41.0037L161.993 38.5015L162 38.5029ZM39.8304 56.7183C38.5127 61.8453 37.2036 65.3952 35.9536 67.6088C35.33 68.7156 34.7223 69.4833 34.1693 69.9508C33.6105 70.4198 33.1368 70.5901 32.6903 70.5915C32.169 70.5915 31.593 70.3433 30.9493 69.7661C29.826 68.7632 28.6278 66.8036 27.4844 64.235C25.762 60.3792 24.1203 55.1569 22.6154 49.6243C21.6764 46.1711 20.7879 42.5953 19.9598 39.1465H29.4933C29.7727 40.0195 30.5892 40.6516 31.5527 40.6516C32.5161 40.6516 33.3341 40.0195 33.6134 39.1465H44.2846C42.9366 44.4453 41.4692 50.3473 39.8289 56.7183H39.8304ZM49.5338 24.6138C50.7161 20.6671 51.8278 17.553 52.8892 15.4765C53.2766 14.7146 53.6597 14.0969 54.024 13.6294C54.2876 13.944 54.6375 14.1821 55.0393 14.3076V36.4134C54.3538 36.627 53.8166 37.171 53.6092 37.8607H45.9378C47.2339 32.7957 48.4177 28.3339 49.5338 24.6152V24.6138ZM57.7539 37.8593C57.5479 37.1695 57.0093 36.6255 56.3239 36.412V14.3062C56.6896 14.1922 57.0137 13.9815 57.2671 13.7073C57.3996 13.8791 57.5364 14.0681 57.6746 14.2817C58.1873 15.0667 58.7346 16.1287 59.3049 17.4765C61.7055 23.1433 64.3827 30.5215 66.9576 37.8593H57.7539ZM87.1032 62.3691C85.9266 64.9493 84.8638 66.6333 83.9493 67.6348C83.4928 68.1355 83.0781 68.4645 82.7137 68.6637C82.3494 68.8614 82.0426 68.9335 81.7618 68.9335C81.4954 68.9335 81.2419 68.8671 80.9784 68.7358C80.5852 68.541 80.1791 68.186 79.7932 67.7314C79.4072 67.2769 79.0429 66.73 78.7102 66.173C78.3862 65.6333 77.9398 64.6737 77.4213 63.4153C75.5982 58.9953 72.8217 50.8264 69.7773 42.0556C69.4432 41.0917 69.1047 40.1205 68.7649 39.1465H77.7468C78.0262 40.0195 78.8427 40.6516 79.8076 40.6516C80.7725 40.6516 81.5875 40.0195 81.8669 39.1465H94.4664C91.6265 50.4786 89.1827 57.8149 87.1017 62.3706L87.1032 62.3691ZM106.009 37.8593C105.741 36.9661 104.916 36.3153 103.936 36.3153C102.957 36.3153 102.132 36.9661 101.864 37.8593H96.1096C96.3601 36.8405 96.6122 35.7943 96.8685 34.7135C99.1035 25.2891 101.043 19.1894 102.702 15.4952C103.529 13.6482 104.291 12.4057 104.945 11.664C105.271 11.2932 105.568 11.0478 105.82 10.9035C106.074 10.7592 106.275 10.7116 106.457 10.7102C106.671 10.7102 106.883 10.7794 107.132 10.9497C107.566 11.2426 108.051 11.8689 108.492 12.6943C109.158 13.931 109.743 15.5861 110.237 17.1619C110.732 18.742 111.136 20.2342 111.487 21.2183C111.943 22.4983 112.822 25.3728 113.896 29.0179C114.674 31.6543 115.557 34.7005 116.467 37.8578H106.007L106.009 37.8593ZM140.025 43.1812C137.743 53.9029 135.682 60.7674 133.878 64.9002C132.978 66.9666 132.137 68.3462 131.404 69.1702C131.038 69.5829 130.701 69.8556 130.408 70.0186C130.115 70.1817 129.87 70.2394 129.644 70.2409C129.41 70.2409 129.183 70.1774 128.934 70.0374C128.5 69.7964 128.025 69.3014 127.583 68.6348C126.916 67.6391 126.32 66.287 125.83 64.9724C125.339 63.6549 124.952 62.3778 124.665 61.4918C124.246 60.1988 123.402 57.3243 122.348 53.6778C121.133 49.4728 119.636 44.2303 118.173 39.145H126.003C126.283 40.0181 127.099 40.6501 128.063 40.6501C129.026 40.6501 129.844 40.0181 130.123 39.145H140.911C140.619 40.4351 140.324 41.78 140.025 43.1812ZM3.73998 44.7599H5.30102V45.4381H3.73998V44.7599ZM6.73248 45.8263H8.59311V46.5521H5.75035L5.7705 46.226C5.7849 45.9778 5.82379 45.7613 5.89004 45.578C5.93756 45.4539 5.9966 45.3429 6.06573 45.2462C6.24142 45.0211 6.50351 44.8407 6.85202 44.7022L7.14148 44.5723C7.34165 44.49 7.48422 44.402 7.56774 44.3111C7.65271 44.2202 7.69449 44.1047 7.69449 43.9662C7.69449 43.8176 7.64982 43.7036 7.56054 43.6242C7.47125 43.5448 7.34309 43.5044 7.17748 43.5044C6.80882 43.5044 6.62447 43.7007 6.62447 44.0946H5.79212C5.78924 43.6805 5.90588 43.3572 6.1435 43.1263C6.38112 42.8955 6.73247 42.78 7.19763 42.78C7.62102 42.78 7.95515 42.8839 8.19997 43.0903C8.44047 43.2981 8.56144 43.5621 8.56144 43.8825C8.56144 44.2028 8.47647 44.4539 8.30798 44.6444C8.13516 44.8378 7.86729 45.0167 7.5015 45.1827L7.19622 45.3284C7.03493 45.4049 6.9197 45.4785 6.85202 45.5492C6.78433 45.6199 6.744 45.7123 6.73104 45.8263H6.73248ZM8.96035 43.8782H12.1286V44.4684H11.7311V45.7945C11.7311 45.9157 11.7844 45.9763 11.8909 45.9763C11.9773 45.9763 12.0335 45.9749 12.0609 45.9706V46.5507C11.9744 46.5651 11.8434 46.5709 11.6677 46.5709C11.3883 46.5709 11.1954 46.5175 11.0859 46.4107C10.9779 46.3039 10.9232 46.1192 10.9232 45.8566V44.4684H10.1628V46.5507H9.35637V44.4684H8.95891V43.8782H8.96035ZM27.3764 44.7584H28.9374V45.4366H27.3764V44.7584ZM30.1413 42.8623H30.8283V46.5507H29.9541V44.2461H29.0958V43.6502L29.1779 43.6444C29.4501 43.6271 29.6632 43.5593 29.8188 43.4395C29.9743 43.3197 30.0809 43.1278 30.1399 42.8623H30.1413ZM31.2877 43.8782H34.4559V44.4684H34.0584V45.7945C34.0584 45.9157 34.1117 45.9763 34.2183 45.9763C34.3047 45.9763 34.3608 45.9749 34.3882 45.9706V46.5507C34.3018 46.5651 34.1708 46.5709 33.9951 46.5709C33.7157 46.5709 33.5227 46.5175 33.4133 46.4107C33.3052 46.3039 33.2505 46.1192 33.2505 45.8566V44.4684H32.4902V46.5507H31.6837V44.4684H31.2862V43.8782H31.2877ZM78.8298 42.8623H79.5167V46.5507H78.6426V44.2461H77.7843V43.6502L77.8664 43.6444C78.1385 43.6271 78.3517 43.5593 78.5072 43.4395C78.6627 43.3197 78.7693 43.1278 78.8283 42.8623H78.8298ZM79.9819 43.8782H83.1501V44.4684H82.7526V45.7945C82.7526 45.9157 82.8059 45.9763 82.9124 45.9763C82.9988 45.9763 83.055 45.9749 83.0824 45.9706V46.5507C82.996 46.5651 82.8649 46.5709 82.6893 46.5709C82.4099 46.5709 82.2169 46.5175 82.1074 46.4107C81.9994 46.3039 81.9447 46.1192 81.9447 45.8566V44.4684H81.1843V46.5507H80.3779V44.4684H79.9804V43.8782H79.9819ZM102.926 45.8263H104.786V46.5521H101.943L101.964 46.226C101.978 45.9778 102.017 45.7613 102.083 45.578C102.131 45.4539 102.19 45.3429 102.259 45.2462C102.434 45.0211 102.697 44.8407 103.045 44.7022L103.335 44.5723C103.535 44.49 103.677 44.402 103.761 44.3111C103.846 44.2202 103.888 44.1047 103.888 43.9662C103.888 43.8176 103.843 43.7036 103.754 43.6242C103.664 43.5448 103.536 43.5044 103.371 43.5044C103.002 43.5044 102.818 43.7007 102.818 44.0946H101.985C101.982 43.6805 102.099 43.3572 102.337 43.1263C102.574 42.8955 102.926 42.78 103.391 42.78C103.814 42.78 104.148 42.8839 104.393 43.0903C104.634 43.2981 104.754 43.5621 104.754 43.8825C104.754 44.2028 104.67 44.4539 104.501 44.6444C104.328 44.8378 104.06 45.0167 103.695 45.1827L103.389 45.3284C103.228 45.4049 103.113 45.4785 103.045 45.5492C102.977 45.6199 102.937 45.7123 102.924 45.8263H102.926ZM105.153 43.8782H108.322V44.4684H107.924V45.7945C107.924 45.9157 107.977 45.9763 108.084 45.9763C108.17 45.9763 108.227 45.9749 108.254 45.9706V46.5507C108.168 46.5651 108.036 46.5709 107.861 46.5709C107.581 46.5709 107.388 46.5175 107.279 46.4107C107.171 46.3039 107.116 46.1192 107.116 45.8566V44.4684H106.356V46.5507H105.549V44.4684H105.152V43.8782H105.153ZM128.905 44.9244C129.017 45.0802 129.073 45.2649 129.073 45.4785C129.073 45.8205 128.944 46.0975 128.686 46.3126C128.424 46.5261 128.067 46.6344 127.616 46.6344C127.114 46.6344 126.73 46.5146 126.468 46.2765C126.206 46.0384 126.075 45.6993 126.075 45.2606H126.912C126.915 45.4886 126.971 45.6531 127.08 45.7556C127.188 45.858 127.357 45.9085 127.584 45.9085C127.77 45.9085 127.916 45.8667 128.019 45.7815C128.123 45.6964 128.175 45.5824 128.175 45.4366C128.175 45.1047 127.967 44.9388 127.554 44.9388H127.281V44.3226H127.57C127.946 44.3226 128.133 44.1754 128.133 43.8825C128.133 43.7555 128.087 43.6531 127.993 43.5766C127.9 43.5001 127.767 43.4626 127.596 43.4626C127.41 43.4626 127.269 43.503 127.174 43.5838C127.079 43.6646 127.024 43.793 127.011 43.9691H126.175C126.202 43.1754 126.677 42.7771 127.602 42.7771C128.025 42.7771 128.359 42.8681 128.603 43.0513C128.846 43.2346 128.967 43.4828 128.967 43.7974C128.967 43.9662 128.919 44.1206 128.824 44.2577C128.729 44.3962 128.601 44.503 128.44 44.5795C128.64 44.6516 128.796 44.7656 128.908 44.9215L128.905 44.9244ZM129.399 43.8782H132.567V44.4684H132.17V45.7945C132.17 45.9157 132.223 45.9763 132.33 45.9763C132.416 45.9763 132.472 45.9749 132.499 45.9706V46.5507C132.413 46.5651 132.282 46.5709 132.106 46.5709C131.827 46.5709 131.634 46.5175 131.525 46.4107C131.417 46.3039 131.362 46.1192 131.362 45.8566V44.4684H130.601V46.5507H129.795V44.4684H129.398V43.8782H129.399ZM151.784 42.8623H150.822L149.157 44.9244V45.7483H150.91V46.5507H151.784V45.7483H152.265V45.0283H151.784V42.8637V42.8623ZM150.936 45.0268H149.886L150.936 43.7267V45.0268ZM152.553 43.8767H155.721V44.4669H155.324V45.7931C155.324 45.9143 155.377 45.9749 155.484 45.9749C155.57 45.9749 155.626 45.9735 155.653 45.9691V46.5492C155.567 46.5637 155.436 46.5694 155.26 46.5694C154.981 46.5694 154.788 46.516 154.679 46.4092C154.57 46.3024 154.516 46.1178 154.516 45.8551V44.4669H153.755V46.5492H152.949V44.4669H152.551V43.8767H152.553ZM61.0186 69.4414H62.5796V70.1196H61.0186V69.4414ZM63.7836 67.5453H64.4705V71.2337H63.5964V68.9292H62.7381V68.3332L62.8202 68.3274C63.0923 68.3101 63.3055 68.2423 63.461 68.1225C63.6165 68.0027 63.7231 67.8108 63.7821 67.5453H63.7836ZM61.8654 12.0969H61.0071V11.5009L61.0892 11.4952C61.3613 11.4778 61.5745 11.41 61.73 11.2903C61.8855 11.1705 61.9921 10.9786 62.0511 10.713H62.7381V14.4014H61.8639V12.0969H61.8654Z" fill="#64F4AC" fill-opacity="0.3"/>
</svg>
