<svg width="32" height="36" viewBox="0 0 32 36" fill="none" xmlns="http://www.w3.org/2000/svg">
<rect y="0.5" width="32" height="35" rx="10" fill="#4087FC"/>
<path d="M7.16191 10.5C6.36242 10.5 5.71429 11.2995 5.71429 12.2857V20.9464C5.71429 23.4613 7.367 25.5 9.40572 25.5L17.981 25.4107C18.7805 25.4107 19.4286 24.6113 19.4286 23.625V14.875C19.4286 12.3602 17.4673 10.5 15.4286 10.5L7.16191 10.5Z" fill="white"/>
<path d="M21.3854 13.9095C20.8681 14.469 20.5714 15.2764 20.5714 16.125V19.7491C20.5714 20.5978 20.8681 21.4052 21.3854 21.9647L24.6044 25.0656C25.2594 25.7739 26.2857 25.2002 26.2857 24.1256V11.919C26.2857 10.8444 25.2594 10.2707 24.6044 10.979L21.3854 13.9095Z" fill="white"/>
</svg>
